<?xml version="1.0" encoding="UTF-8"?>
<svg xmlns="http://www.w3.org/2000/svg" xmlns:xlink="http://www.w3.org/1999/xlink" width="64pt" height="64pt" viewBox="0 0 64 64" version="1.1">
<g id="surface6733821">
<path style=" stroke:none;fill-rule:nonzero;fill:rgb(20.392157%,59.607843%,85.882353%);fill-opacity:1;" d="M 35 7 C 35.550781 7 36 7.449219 36 8 L 36 23 L 43 23 C 43.550781 23 44 23.449219 44 24 L 44 31 L 44.097656 31 C 44.148438 31.003906 46.191406 31.03125 47.769531 29.832031 C 46.785156 28.082031 45.144531 23.601562 49.230469 17.445312 C 49.378906 17.222656 49.609375 17.070312 49.867188 17.019531 C 50.128906 16.964844 50.398438 17.019531 50.621094 17.167969 C 50.855469 17.328125 55.664062 20.609375 55.453125 25.191406 C 57.539062 24.542969 60.570312 24.589844 63.648438 27.242188 C 63.964844 27.511719 64.078125 27.945312 63.9375 28.335938 C 63.917969 28.394531 61.957031 33.621094 55.6875 34.085938 C 55.46875 34.03125 55.234375 34.003906 54.996094 34.003906 L 51.578125 34.003906 C 51.925781 33.203125 52.089844 32.71875 52.101562 32.6875 C 52.25 32.230469 52.703125 31.941406 53.183594 32.007812 C 58.648438 32.738281 60.996094 29.667969 61.757812 28.289062 C 57.878906 25.417969 54.792969 27.6875 54.65625 27.792969 C 54.300781 28.0625 53.800781 28.066406 53.441406 27.792969 C 53.085938 27.519531 52.953125 27.046875 53.117188 26.628906 C 54.371094 23.476562 51.742188 20.683594 50.328125 19.46875 C 46.804688 25.5625 49.8125 29.320312 49.84375 29.359375 C 50.164062 29.746094 50.148438 30.3125 49.804688 30.675781 C 47.578125 33.074219 44.214844 33.003906 44.066406 32.996094 L 43.019531 32.996094 C 43.011719 32.996094 43.007812 33 43 33 L 2.167969 33 C 1.898438 35.042969 1.546875 40.710938 5.007812 45.429688 C 8.144531 49.707031 13.613281 52.210938 21.257812 52.871094 C 22.273438 52.957031 23.257812 52.996094 24.210938 52.996094 C 31.777344 53 37.503906 50.378906 41.742188 47.019531 L 38.878906 49.882812 C 38.359375 50.398438 38.054688 51.074219 38.007812 51.796875 C 34.230469 53.726562 29.679688 55 24.234375 55 C 23.214844 55 22.167969 54.957031 21.085938 54.859375 C 12.832031 54.152344 6.871094 51.367188 3.378906 46.59375 C -1.4375 40.003906 0.269531 32.113281 0.34375 31.777344 C 0.449219 31.324219 0.855469 31 1.320312 31 L 2 31 L 2 24 C 2 23.449219 2.449219 23 3 23 L 10 23 L 10 16 C 10 15.449219 10.449219 15 11 15 L 26 15 L 26 8 C 26 7.449219 26.449219 7 27 7 Z M 28 15 L 34 15 L 34 9 L 28 9 Z M 12 23 L 18 23 L 18 20 C 18 19.449219 18.449219 19 19 19 C 19.550781 19 20 19.449219 20 20 L 20 23 L 26 23 L 26 17 L 12 17 Z M 28 23 L 31 23 C 31.550781 23 32 23.449219 32 24 C 32 24.550781 31.550781 25 31 25 L 28 25 L 28 31 L 34 31 L 34 17 L 28 17 Z M 4 31 L 10 31 L 10 25 L 4 25 Z M 12 31 L 18 31 L 18 25 L 12 25 Z M 20 31 L 26 31 L 26 25 L 20 25 Z M 36 31 L 42 31 L 42 25 L 36 25 Z M 15 40.5 C 15 41.878906 13.878906 43 12.5 43 C 11.121094 43 10 41.878906 10 40.5 C 10 39.121094 11.121094 38 12.5 38 C 13.878906 38 15 39.121094 15 40.5 Z M 43.015625 38.746094 L 44.542969 40.035156 C 44.960938 40.394531 45.011719 41.023438 44.65625 41.449219 C 44.457031 41.679688 44.175781 41.800781 43.890625 41.800781 C 43.664062 41.800781 43.433594 41.722656 43.246094 41.566406 L 41.722656 40.269531 C 41.300781 39.914062 41.25 39.28125 41.605469 38.859375 C 41.785156 38.648438 42.03125 38.53125 42.285156 38.511719 C 42.542969 38.488281 42.804688 38.566406 43.015625 38.746094 Z M 39.683594 42.273438 L 40.941406 43.824219 C 41.289062 44.253906 41.222656 44.886719 40.792969 45.230469 C 40.609375 45.382812 40.386719 45.457031 40.167969 45.457031 C 39.875 45.457031 39.585938 45.332031 39.390625 45.085938 L 38.132812 43.53125 C 37.78125 43.101562 37.847656 42.472656 38.277344 42.128906 C 38.492188 41.953125 38.753906 41.882812 39.011719 41.910156 C 39.265625 41.933594 39.507812 42.058594 39.683594 42.273438 Z M 35.757812 45.085938 L 36.664062 46.867188 C 36.914062 47.359375 36.71875 47.960938 36.226562 48.214844 C 36.082031 48.285156 35.925781 48.320312 35.773438 48.320312 C 35.410156 48.320312 35.058594 48.121094 34.882812 47.773438 L 33.972656 45.992188 C 33.726562 45.5 33.917969 44.898438 34.410156 44.644531 C 34.535156 44.582031 34.664062 44.546875 34.792969 44.539062 C 35.183594 44.511719 35.570312 44.71875 35.757812 45.085938 Z M 31.328125 46.984375 L 31.828125 48.921875 C 31.964844 49.457031 31.644531 50.003906 31.109375 50.140625 C 31.027344 50.164062 30.941406 50.171875 30.859375 50.171875 C 30.414062 50.171875 30.007812 49.871094 29.894531 49.421875 L 29.394531 47.484375 C 29.253906 46.949219 29.574219 46.40625 30.109375 46.269531 C 30.242188 46.234375 30.378906 46.226562 30.507812 46.246094 C 30.890625 46.304688 31.226562 46.582031 31.328125 46.984375 Z M 26.582031 47.898438 L 26.683594 49.894531 C 26.710938 50.449219 26.285156 50.917969 25.734375 50.945312 C 25.71875 50.945312 25.699219 50.949219 25.683594 50.949219 C 25.15625 50.949219 24.710938 50.53125 24.6875 49.996094 L 24.585938 48 C 24.554688 47.449219 24.980469 46.980469 25.53125 46.949219 C 26.074219 46.925781 26.550781 47.347656 26.582031 47.898438 Z M 45.996094 45.175781 C 45.679688 45.066406 45.34375 45.007812 44.996094 45.007812 C 44.558594 45.007812 44.132812 45.101562 43.746094 45.277344 C 44.5625 44.503906 45.3125 43.707031 45.996094 42.910156 Z M 45.996094 45.175781 "/>
<path style=" stroke:none;fill-rule:nonzero;fill:rgb(20.392157%,59.607843%,85.882353%);fill-opacity:1;" d="M 51.996094 64 C 51.742188 64 51.484375 63.902344 51.289062 63.707031 L 40.292969 52.710938 C 39.902344 52.320312 39.902344 51.6875 40.292969 51.296875 L 44.289062 47.300781 C 44.679688 46.910156 45.3125 46.910156 45.703125 47.300781 L 47.996094 49.59375 L 47.996094 37.007812 C 47.996094 36.453125 48.445312 36.007812 48.996094 36.007812 L 55 36.007812 C 55.550781 36.007812 56 36.453125 56 37.007812 L 56 49.59375 L 58.292969 47.300781 C 58.683594 46.910156 59.316406 46.910156 59.707031 47.300781 L 63.707031 51.300781 C 63.894531 51.488281 64 51.746094 64 52.007812 C 64 52.277344 63.894531 52.53125 63.707031 52.714844 L 52.703125 63.707031 C 52.507812 63.902344 52.253906 64 51.996094 64 Z M 42.414062 52.003906 L 51.996094 61.585938 L 61.585938 52.007812 L 59 49.421875 L 55.707031 52.714844 C 55.417969 53.003906 54.988281 53.089844 54.613281 52.933594 C 54.242188 52.78125 53.996094 52.414062 53.996094 52.007812 L 53.996094 38.007812 L 49.996094 38.007812 L 49.996094 52.007812 C 49.996094 52.414062 49.753906 52.78125 49.378906 52.933594 C 49.003906 53.089844 48.574219 53.003906 48.289062 52.714844 L 44.996094 49.421875 Z M 42.414062 52.003906 "/>
</g>
</svg>
