<?xml version="1.0" encoding="UTF-8"?>
<svg xmlns="http://www.w3.org/2000/svg" xmlns:xlink="http://www.w3.org/1999/xlink" width="48pt" height="48pt" viewBox="0 0 48 48" version="1.1">
<g id="surface7242967">
<path style=" stroke:none;fill-rule:nonzero;fill:rgb(20.392157%,59.607843%,85.882353%);fill-opacity:1;" d="M 24 4 C 16.617188 4 10.171875 8.03125 6.707031 14 L 11.589844 14 C 13.390625 11.777344 15.738281 10.015625 18.472656 9.003906 C 17.847656 10.460938 17.34375 12.160156 16.960938 14 L 21.074219 14 C 22.03125 10.046875 23.375 8 24 8 C 24.625 8 25.96875 10.046875 26.925781 14 L 31.039062 14 C 30.65625 12.160156 30.152344 10.460938 29.527344 9.003906 C 32.257812 10.015625 34.609375 11.777344 36.410156 14 L 41.292969 14 C 37.828125 8.03125 31.382812 4 24 4 Z M 6.324219 18 L 6.324219 30 L 10.589844 30 C 11.628906 29.992188 12.566406 29.753906 13.394531 29.277344 C 14.222656 28.800781 14.863281 28.125 15.316406 27.257812 C 15.769531 26.390625 16 25.398438 16 24.28125 L 16 23.726562 C 16 22.609375 15.765625 21.613281 15.304688 20.738281 C 14.84375 19.863281 14.199219 19.1875 13.375 18.710938 C 12.550781 18.238281 11.613281 18 10.566406 18 Z M 19.410156 18 L 19.410156 30 L 21.882812 30 L 21.882812 22.105469 L 26.695312 30 L 29.167969 30 L 29.167969 18 L 26.703125 18 L 26.703125 25.910156 L 21.882812 18 Z M 36.667969 18 C 35.839844 18 35.089844 18.140625 34.425781 18.417969 C 33.761719 18.695312 33.25 19.085938 32.894531 19.578125 C 32.539062 20.070312 32.359375 20.632812 32.359375 21.265625 C 32.359375 22.480469 33.027344 23.445312 34.351562 24.160156 C 34.839844 24.421875 35.496094 24.691406 36.332031 24.960938 C 37.167969 25.230469 37.742188 25.488281 38.0625 25.730469 C 38.382812 25.972656 38.546875 26.324219 38.546875 26.777344 C 38.546875 27.191406 38.382812 27.523438 38.0625 27.753906 C 37.742188 27.984375 37.292969 28.101562 36.722656 28.101562 C 35.183594 28.101562 34.414062 27.453125 34.414062 26.164062 L 32 26.164062 C 32 26.917969 32.195312 27.582031 32.582031 28.152344 C 32.96875 28.722656 33.53125 29.179688 34.269531 29.507812 C 35.007812 29.835938 35.824219 30 36.722656 30 C 38.015625 30 39.046875 29.710938 39.808594 29.136719 C 40.574219 28.5625 40.957031 27.769531 40.957031 26.757812 C 40.957031 25.847656 40.644531 25.089844 40.019531 24.480469 C 39.394531 23.871094 38.394531 23.359375 37.027344 22.949219 C 36.285156 22.726562 35.722656 22.484375 35.339844 22.226562 C 34.957031 21.96875 34.765625 21.652344 34.765625 21.273438 C 34.765625 20.867188 34.933594 20.535156 35.257812 20.289062 C 35.582031 20.042969 36.039062 19.917969 36.628906 19.917969 C 37.238281 19.917969 37.710938 20.066406 38.046875 20.363281 C 38.386719 20.660156 38.554688 21.078125 38.554688 21.613281 L 40.960938 21.613281 C 40.960938 20.910156 40.777344 20.285156 40.417969 19.734375 C 40.058594 19.183594 39.550781 18.753906 38.898438 18.453125 C 38.246094 18.152344 37.503906 18 36.667969 18 Z M 8.902344 20.003906 L 10.386719 20.003906 C 11.351562 20.003906 12.082031 20.316406 12.585938 20.945312 C 13.089844 21.574219 13.339844 22.5 13.339844 23.71875 L 13.339844 24.351562 C 13.328125 25.527344 13.070312 26.429688 12.5625 27.0625 C 12.054688 27.695312 11.320312 28.011719 10.363281 28.011719 L 8.902344 28.011719 Z M 6.707031 34 C 10.171875 39.96875 16.617188 44 24 44 C 31.382812 44 37.828125 39.96875 41.292969 34 L 36.410156 34 C 34.609375 36.222656 32.261719 37.984375 29.527344 38.996094 C 30.152344 37.539062 30.652344 35.839844 31.035156 34 L 26.921875 34 C 25.964844 37.953125 24.621094 40 23.996094 40 C 23.371094 40 22.03125 37.953125 21.074219 34 L 16.960938 34 C 17.34375 35.839844 17.847656 37.539062 18.472656 38.996094 C 15.742188 37.984375 13.390625 36.222656 11.589844 34 Z M 6.707031 34 "/>
</g>
</svg>
