<svg id="Layer_1" data-name="Layer 1" xmlns="http://www.w3.org/2000/svg" viewBox="0 0 159.01 159.01"><defs><style>.cls-1{fill:#3498db;}</style></defs><path class="cls-1" d="M79.51,10.19A69.31,69.31,0,0,0,19.56,44.84H33.37A58.18,58.18,0,0,1,56.76,26.42a77.86,77.86,0,0,0-7.5,18.42H61.43C66,30.64,73,21.75,79.51,21.75S93,30.64,97.58,44.84h12.17a77.86,77.86,0,0,0-7.49-18.42,58.21,58.21,0,0,1,23.4,18.42h13.8A69.34,69.34,0,0,0,79.51,10.19Zm-59.95,104a69.2,69.2,0,0,0,119.9,0h-13.8a58.19,58.19,0,0,1-23.4,18.41,77.77,77.77,0,0,0,7.49-18.41H97.58c-4.56,14.2-11.53,23.09-18.07,23.09S66,128.38,61.45,114.18H49.26a77.77,77.77,0,0,0,7.5,18.41,58.16,58.16,0,0,1-23.39-18.41Z"/><path class="cls-1" d="M11.29,55.38h9.24V69.84h.11c1.47-2.88,5.21-4.68,8.58-4.68,9.4,0,10.16,6.85,10.16,10.92v18.1H30.15V77.71c0-2.71-.93-4.94-4.62-4.94-3.48,0-5,3-5,6V94.18H11.29Z"/><path class="cls-1" d="M62.53,72H56.82V84.78c0,2.22,1.31,2.71,3.32,2.71.81,0,1.57-.11,2.39-.11v6.8c-1.69,0-3.37.27-5.05.27-7.88,0-9.89-2.34-9.89-10V72H42.91V66h4.68V57.45h9.23V66h5.71Z"/><path class="cls-1" d="M83.66,72H78V84.78c0,2.22,1.3,2.71,3.31,2.71.82,0,1.58-.11,2.39-.11v6.8c-1.68,0-3.37.27-5,.27-7.88,0-9.89-2.34-9.89-10V72H64.05V66h4.67V57.45H78V66h5.7Z"/><path class="cls-1" d="M87.79,66h8.8v3.26h.11a8.9,8.9,0,0,1,7.77-4.08c8.86,0,12.61,7.56,12.61,15.54,0,7.34-3.92,14.29-11.9,14.29a9.49,9.49,0,0,1-8-3.86H97v12.5H87.79Zm8.91,13.8c0,4.94,1.41,8.15,5.6,8.15s5.54-4.29,5.54-8.15c0-3.59-1.36-7.55-5.49-7.55C99.91,72.23,96.7,73.91,96.7,79.78Z"/><path class="cls-1" d="M129.19,84.89A3.74,3.74,0,0,0,130.71,88a5.81,5.81,0,0,0,3.43,1c1.73,0,4.34-.81,4.34-3s-2.93-2.56-4.51-3c-5.81-1.47-13.09-1.63-13.09-9.24,0-6.74,7.33-8.64,12.88-8.64,6.13,0,12.71,1.8,13,9.13h-8.53A2.61,2.61,0,0,0,137,71.85a5.12,5.12,0,0,0-2.94-.71c-1.52,0-4,.16-4,2.12,0,2.61,6.2,3.2,10.44,4.07,5.65,1.14,7.17,5.27,7.17,7.61,0,7.55-7.17,10-13.53,10-6.74,0-13.53-2.23-13.8-10.1Z"/></svg>