<svg id="Layer_1" data-name="Layer 1" xmlns="http://www.w3.org/2000/svg" viewBox="0 0 1220 1220"><defs><style>.cls-1{fill:#326ce5;}.cls-2{fill:#9f5324;}.cls-3{fill:#aa684a;}.cls-4{fill:#ffce03;}.cls-5{fill:#fff100;}.cls-6{fill:#e77b24;}.cls-7{fill:#f6921e;}.cls-8{fill:#fff9cd;}.cls-9{fill:#f7e28a;}.cls-10{fill:#824c36;}</style></defs><path class="cls-1" d="M609,743.07A26.36,26.36,0,0,1,633,756.81h.57l75.4,136.24a310.24,310.24,0,0,1-30.13,8.42,306.37,306.37,0,0,1-167.2-8.6l75.2-136h.13A26.21,26.21,0,0,1,609,743.07ZM479.8,680.34a26.12,26.12,0,0,1,23.62,36.4l.44.56L444.61,860.51A306.73,306.73,0,0,1,321.47,706.42l153-25.95.26.31A26.25,26.25,0,0,1,479.8,680.34Zm259.13-.64a26.4,26.4,0,0,1,6,.45l.24-.32,154.29,26.08A305.54,305.54,0,0,1,776,861.08l-59.9-144.66.19-.25a26.23,26.23,0,0,1,22.67-36.47ZM586.1,553h47.67l29.63,37-10.64,46.21L610,656.79l-42.92-20.64-10.64-46.21Zm284.95-112a310.68,310.68,0,0,1,44.63,192.58L765.77,590.31l-.13-.63a26.13,26.13,0,0,1-10.25-44.89l-.07-.32Zm-523-.07L464.42,544.92l-.13.63A26.11,26.11,0,0,1,454,590.44l-.13.51L304.75,634A305.27,305.27,0,0,1,348.06,440.84ZM647.13,297.25a307.85,307.85,0,0,1,177.52,85.6L698,472.62l-.45-.19a26.15,26.15,0,0,1-41.52-19.94l-.13-.06Zm-74.26,0-8.8,155.43-.63.31A26.12,26.12,0,0,1,522,473l-.26.13L394.28,382.79a305.17,305.17,0,0,1,147-80.09A315.8,315.8,0,0,1,572.87,297.25ZM610,67.44c-16.36,0-29.64,14.75-29.63,32.92,0,.29,0,.56.06.84,0,2.46-.14,5.44-.06,7.59.39,10.49,2.67,18.51,4,28.17,2.49,20.68,4.58,37.82,3.29,53.75-1.25,6-5.67,11.5-9.62,15.32l-.69,12.53a388.24,388.24,0,0,0-53.57,8.23A381.11,381.11,0,0,0,330.21,337.4c-3.28-2.24-9-6.34-10.7-7.6-5.29.71-10.64,2.34-17.6-1.71-13.26-8.93-25.34-21.25-40-36.09-6.7-7.09-11.54-13.86-19.5-20.7-1.8-1.55-4.55-3.65-6.58-5.25a35.27,35.27,0,0,0-20.64-7.79,28.48,28.48,0,0,0-23.61,10.45c-10.21,12.79-6.93,32.34,7.28,43.68.14.12.3.21.44.32,2,1.58,4.35,3.6,6.14,4.93,8.45,6.23,16.15,9.43,24.56,14.38,17.73,10.93,32.42,20,44.07,31,4.55,4.84,5.34,13.39,5.94,17.09l9.5,8.48A383.45,383.45,0,0,0,229.1,655.84l-12.4,3.61c-3.28,4.22-7.9,10.87-12.73,12.85-15.25,4.79-32.4,6.56-53.11,8.73-9.73.81-18.12.33-28.43,2.29-2.27.42-5.43,1.24-7.92,1.83l-.24.07-.45.11c-17.46,4.23-28.67,20.28-25.07,36.09s20.67,25.44,38.24,21.65c.13,0,.31,0,.44-.06s.38-.14.57-.18c2.45-.55,5.52-1.14,7.66-1.72,10.14-2.72,17.48-6.7,26.59-10.19,19.61-7,35.84-12.9,51.66-15.2,6.61-.51,13.57,4.09,17,6l12.92-2.22A385.55,385.55,0,0,0,414.72,932.87l-5.38,12.92c1.94,5,4.09,11.8,2.64,16.76-5.76,14.9-15.61,30.64-26.82,48.19-5.43,8.11-11,14.4-15.89,23.68-1.18,2.22-2.67,5.63-3.8,8-7.62,16.3-2,35.07,12.6,42.1s33-.38,40.9-16.7c0,0,0,0,.06-.07s0,0,0-.06c1.12-2.32,2.73-5.36,3.68-7.54,4.19-9.62,5.58-17.86,8.54-27.15,7.84-19.7,12.15-40.36,22.93-53.23,3-3.52,7.78-4.89,12.77-6.22l6.72-12.16a383.41,383.41,0,0,0,273.42.7c1.89,3.35,5.39,9.77,6.33,11.4,5.08,1.65,10.62,2.5,15.14,9.18,8.07,13.79,13.59,30.11,20.32,49.82,3,9.3,4.41,17.54,8.61,27.16,1,2.19,2.54,5.28,3.67,7.59,7.89,16.38,26.22,23.88,41,16.78s20.21-25.81,12.6-42.1c-1.13-2.35-2.7-5.76-3.86-8-4.91-9.28-10.46-15.52-15.9-23.62-11.22-17.54-20.51-32.12-26.27-47-2.4-7.69.4-12.48,2.28-17.47-1.12-1.29-3.52-8.55-4.93-12A385.61,385.61,0,0,0,976.84,719c3.83.6,10.5,1.78,12.66,2.21,4.45-2.94,8.55-6.77,16.59-6.14,15.82,2.29,32.05,8.16,51.66,15.19,9.11,3.5,16.45,7.55,26.59,10.26,2.14.58,5.21,1.11,7.65,1.64.2,0,.38.15.58.19s.32,0,.44.07c17.57,3.78,34.63-5.83,38.24-21.65s-7.6-31.87-25.07-36.09c-2.54-.57-6.14-1.56-8.61-2-10.31-2-18.7-1.46-28.43-2.27-20.71-2.18-37.86-3.94-53.12-8.74-6.21-2.41-10.63-9.81-12.78-12.86l-12-3.48a384.87,384.87,0,0,0-61.73-266.64c3.07-2.79,8.86-7.93,10.5-9.44.49-5.31.07-10.89,5.58-16.78,11.65-10.94,26.35-20,44.06-31,8.41-4.95,16.18-8.13,24.63-14.36,1.91-1.42,4.51-3.65,6.52-5.27,14.22-11.33,17.48-30.88,7.28-43.68s-30-14-44.19-2.65c-2,1.6-4.76,3.69-6.58,5.25-8,6.85-12.87,13.61-19.57,20.71-14.61,14.84-26.69,27.22-39.94,36.14-5.75,3.35-14.17,2.19-18,2l-11.26,8c-64.26-67.38-151.75-110.46-246-118.83-.25-3.94-.6-11.08-.69-13.22-3.86-3.69-8.52-6.85-9.68-14.82-1.3-15.93.86-33.07,3.35-53.75,1.37-9.66,3.66-17.68,4-28.17.08-2.38,0-5.84-.06-8.43C639.6,82.19,626.33,67.44,610,67.44Z"/><path class="cls-1" d="M609.2,829a507.1,507.1,0,0,1-68.13-4.47c-19-2.59-35.16-6-49.38-10.53a5.21,5.21,0,0,1-3.45-6.37c.14-.47.27-.94.42-1.44a5.21,5.21,0,0,1-.42-3.85,138.28,138.28,0,0,1,5.56-15.72,217.8,217.8,0,0,1,15-28.82c-24.25-4.83-51.53-11.87-64.87-18.3-17.67,4.77-34,10.28-51.19,16.11-16.07,5.43-32.69,11-51.41,16.38-3.83,1.09-8.21,2.38-13,3.81-31.85,9.4-85.16,25.13-126.27,25.13-20.48,0-36.22-3.94-46.79-11.72a5.23,5.23,0,0,1-1.4-6.84,5.13,5.13,0,0,1-.67-2,5.2,5.2,0,0,1,1.08-3.93c1.15-1.44,2.37-2.84,3.73-4.25-4.8.4-9.63.64-14.39.64-17.67,0-31-3.57-40.79-10.91a5.2,5.2,0,0,1-2-5.24c.13-.62.28-1.23.46-1.84a5.14,5.14,0,0,1-.46-3.46,27.69,27.69,0,0,1,2-5.95c5-11.68,14.71-19.33,32-24.46a28.88,28.88,0,0,1-11.32-8.41,5.15,5.15,0,0,1-1-2.21,12.76,12.76,0,0,1,0-5,1.84,1.84,0,0,1,0-.25c-.84-4.48.27-11.16,10.31-17.61,20.29-15,89-34.25,300.57-41.11,9.62-9.71,22.2-20.18,37.42-31.14a5.2,5.2,0,0,1,2.6-1c3.21-2.3,6.55-4.64,9.95-7a1.64,1.64,0,0,1,.22-.14c5.47-3.35,12.5-7.55,20.91-12.48a5,5,0,0,1,1.13-.89l5.6-3.27q-.24-3.18-.24-6.35a82.67,82.67,0,0,1,1.89-17.79c2.9-13.25,9-24.11,16.88-30.37q-.74-7.51-1.5-15l-.75-7.49q-1.18-11.68-2.35-23.38C524,477.92,522.45,465,521,452.58c-2.3-19.64-4.68-39.86-6.06-59a37.35,37.35,0,0,1-15.38,3.9,16.79,16.79,0,0,1-9.84-2.82c-10.43-1.8-16.84-7.62-17.67-16.14a5.21,5.21,0,0,1,3.42-5.4,5.19,5.19,0,0,1,6.07,2,15.54,15.54,0,0,0,6.36,5.3c3.08-2.68,6.78-3.16,9.51-3.51l.51-.07a34.08,34.08,0,0,0,9.72-2.64c1.77-.84,14.72-10.89,16.47-27.58.28-2.68.36-5.43.44-8.35.18-6.45.36-13.12,2.83-19.59a8.18,8.18,0,0,1,2.81-3.64,14,14,0,0,0-3.85-8.49,5.21,5.21,0,0,1,3.71-8.86,5.49,5.49,0,0,1,1.59.25c8.33,2.67,12.56,10.75,11.51,21.79.19.34.37.68.55,1a23.51,23.51,0,0,1,5.54-9.3,16.15,16.15,0,0,1,2.17-1.75,13.91,13.91,0,0,0-3.26-7.75,5.2,5.2,0,0,1,5.83-8.26c7.41,2.89,11.17,10,10.46,19.62a15.38,15.38,0,0,1,1.32,5.23,41.07,41.07,0,0,1,4.64-4.49q.45-.37.9-.72a16.52,16.52,0,0,0-2.08-9.07,5.21,5.21,0,0,1,7.1-7.15,16,16,0,0,1,7.66,10,7.38,7.38,0,0,1,1-3.33,13.94,13.94,0,0,0-6.15-6.53,5.2,5.2,0,0,1,2.35-9.83c8.57,0,14.81,5.78,17.45,16a31.71,31.71,0,0,1,8.83,11c0-1.38,0-2.78-.07-4.16a80.48,80.48,0,0,1,.13-9.42l0-.32a8.22,8.22,0,0,1,3.14-6.17,14,14,0,0,0-3.88-8.31,5.21,5.21,0,0,1,5.25-8.64c8.05,2.53,12.26,9.89,11.72,20.34a38.19,38.19,0,0,1,5.14,16.1,9.35,9.35,0,0,1,1.5-.22,14.93,14.93,0,0,0,.9-10.38,5.2,5.2,0,0,1,9-4.72c6,7,5.38,16.58-1.69,26-1.16,16.75-17.6,36.73-33.75,41.95.43,14.39,1,29,1.53,43.17,1,25.73,2,52.35,2.23,77.67,0,4.08.12,10.64.18,15.58,0,0,.07,6,.1,7.68,6.06,3.95,11.14,11.58,14.53,21.94a3.57,3.57,0,0,1,.16.46l.16.52c43.13-15.29,84.51-23,123.09-23a255.09,255.09,0,0,1,59.59,6.81,186.32,186.32,0,0,1,30.45,11.14c.21.1.41.21.61.33,10.94,5,21.61,10.83,31.94,16.44,15.17,8.23,29.49,16,44.48,21.49a47.66,47.66,0,0,0,16.45,3.28c6.41,0,12-1.69,18.52-3.65,2.94-.89,6.13-1.85,9.64-2.72-2.64-6.21-5-12.48-7.22-18.6-2.14-5.78-4.16-11.23-6.35-16.41a5.21,5.21,0,0,1,8.23-5.95l42.91,37.71,43.92-52a5.21,5.21,0,0,1,9,4.84c-.85,2.88-1.9,6.84-3.11,11.43-3.43,13-8,30.33-13.82,44.93a103.51,103.51,0,0,1,59.73,67.81c9.16,32.74,1.64,68-20.63,96.7a158.84,158.84,0,0,1-30.52,30.3,6.5,6.5,0,0,1-2.47,7.09,154.41,154.41,0,0,1-35.7,18.94c-13.92,6.07-39.26,14.1-98.25,14.1h0c-8.78,0-18.19-.18-28-.53-25.85-.93-47.6-3.22-64.69-6.82-3.86,1.36-7.76,2.59-11.61,3.67C733.32,819.5,669.16,829,609.2,829Zm-55.5-297.4c6.76,2.44,12.88,8,17.54,15.83.06-.44.13-.9.2-1.36l.14-.87c.13-.83.28-1.69.45-2.6l.2-1c0-.11,0-.21.07-.32a82.24,82.24,0,0,1,2.54-9.46c2.52-7.42,5.95-13.46,10-17.64-.5-8.23-.78-15.07-.89-21.38l0-.86c0-1.71-.06-3.41-.06-5.12,0-21.29-.88-43-1.75-63.91-.52-12.31-1-24.95-1.39-37.55a15.1,15.1,0,0,1-8.24,3,9.52,9.52,0,0,1-7.14-3.18l-.12-.12c-8.16-1.93-13.66-6.46-15.61-12.82a50.48,50.48,0,0,1-9.83,5.42c-.79,28,2.69,57.41,6.05,85.86,1.37,11.55,2.78,23.48,3.86,35,.53,5.56,1.29,11.28,2,16.8.59,4.45,1.2,9.05,1.7,13.62Q553.58,530.26,553.7,531.61ZM558.24,365a5.08,5.08,0,0,1,.4.59,13.94,13.94,0,0,0,7.69,5.92c.44-.44.92-.88,1.44-1.31a44.09,44.09,0,0,1,4.56-3.27c.53-.35,1-.64,1.34-.9,2.24-1.65,8.69-8.53,9.93-10,4.52-6.85,7-15.12,6.61-22.21-.26-5.1-1.77-9.92-3.38-15-.78-2.5-1.59-5.08-2.27-7.76a26.61,26.61,0,0,1-.65,7.38v.39c-.41,12-7.29,25.64-20.45,40.65C561.71,361.43,560,363.27,558.24,365Z"/><path class="cls-2" d="M1014,753.16a226.62,226.62,0,0,1-28,6.62c-28.64,5-58.11,6.77-87.13,8.1-24.55,1.12-49.3,2-73.75-.89-6.2-.74-12.34-1.6-18.47-2.55-44.49,12-90.1,19.53-136,24-24.36,2.38-50.26,5.45-74.3-1-24.8-6.68-42.89-23.59-62-39.39-2.19-1.5-4.43-2.9-6.74-4.19-5-1.68-10-3.19-15-4.78A68.94,68.94,0,0,1,484.15,722l-1.12-.28a436,436,0,0,0-53.37-11.39c-44.37-5.11-89.1-4.8-133.56-9.1-24.17-2.34-48.2-4.48-72.52-3.52-24.56,1-49,4.07-73.4,6.7a45,45,0,0,1-20-2.76c-2.14,2.46-3.1,5.05-2.58,7.79,9.37,12.19,38.49,13.61,59.43,14.07-1.53.14-3.06.28-4.59.44l-.25,0c-45.42,4-66.93,10.68-74.63,28.93a22.44,22.44,0,0,0-1.69,4.91c21.26,16,57.53,8.65,87.15,4.84-11.4,3.56-22.08,9.16-30.5,17.62l-.06.06h0a58.61,58.61,0,0,0-4.19,4.69c38,28,140.75-6.41,181.57-18,39.2-11.16,69.25-23.63,104.6-33-1.12-.54-2.23-1.09-3.32-1.66l.18-.06c1,.58,2.08,1.15,3.14,1.72,12.78,6.82,46.59,15.49,75.87,20.73-8.88,13.21-16.42,26.5-21.76,39.23a130.14,130.14,0,0,0-5.34,15.12c15.16,4.79,31.51,8,48.51,10.33,88.65,12.08,180.58-2.2,256.72-23.65,4.35-1.22,8.57-2.59,12.67-4.06,16.56,3.62,38,6,65.23,7,78.25,2.81,108.17-6.24,124.07-13.2a148.32,148.32,0,0,0,34.63-18.34A1.33,1.33,0,0,0,1035,765C1028.22,760.68,1021.15,756.79,1014,753.16Z"/><path class="cls-3" d="M496.74,390s-18.28.79-19.53-12c4.4,6.49,11.86,8.86,14.8,8.68S498.81,388.84,496.74,390Z"/><path class="cls-3" d="M574.72,380.79s-19.3.84-20.61-12.66c4,7.08,12.51,9.36,15.62,9.17S576.91,379.54,574.72,380.79Z"/><path class="cls-4" d="M158.32,779.73c38,28,140.75-6.41,181.57-18,39.2-11.16,69.25-23.63,104.6-33-19.25-9.23-35.41-22.41-30.05-44.29,2.46-9.82,9.36-20.08,18.64-30.14-46,.74-102.59,4.55-132.51,6.83-28.73,1.56-178.23,14.85-172.92,43.07,9.37,12.19,38.49,13.61,59.43,14.07-38,3.38-76.36,11.68-81.16,34.3,21.26,16,57.53,8.65,87.15,4.83C179.66,761.55,167.22,768.55,158.32,779.73Z"/><path class="cls-5" d="M162.51,775c6.57-5.81,16.36-12.9,26.43-16l81-25.33-49.64,14.11c-22.84,5.5-76.5,23-114.34,4.75,5.89-22,27-29.46,76.32-33.84l68.06-6.07S130.81,726.7,128.93,700c15.87-41.64,290-48,335.05-49.24-5,6.71-16.62,13-18.27,19.17-5.25,20.13,15,48.72,28.94,46.49C453.23,719.79,209,818.51,162.51,775Z"/><path class="cls-6" d="M972.8,580.21c5.6-4.82,20.35-6.83,26.27-10.32L949.7,526.51C956.83,543.32,962.24,563.37,972.8,580.21Z"/><path class="cls-2" d="M974.38,580.21c5.19,0,5,1.23,10.87-2.26L949.7,526.51C956.83,543.32,963.82,563.37,974.38,580.21Z"/><path class="cls-6" d="M1044,511.64l-50,59.17c4.84,7.41,22.11,5.61,24.87,13.39C1031.05,565.89,1039.63,526.2,1044,511.64Z"/><path class="cls-2" d="M1044,511.64l-48.34,61.25c4.84,7.41.46,2.87,6.56,8.4C1014.36,563,1039.63,526.2,1044,511.64Z"/><path class="cls-3" d="M549.15,540.16c-.19-3.57-.51-7.13-.9-10.69-8.79,0-12.36-3.79-14.8-9q1.31,12.79,2.53,25.6C540.68,539.17,545.32,536.16,549.15,540.16Z"/><path class="cls-3" d="M565.57,332.61a158.44,158.44,0,0,0,8.12-14.54c-7.91,6.5-12.43,16.75-18.2,25-.13.19-.27.37-.41.55-1,2.17-1.6,3.73-1.6,3.73S561.08,339.6,565.57,332.61Z"/><path class="cls-3" d="M547.52,339.75c1.56-3.92,3.8-16.76,3.92-19.58a11.71,11.71,0,0,1,1.39-5c-5.65,5.44-6.45,17.92-8.17,24.51-1.61,6.21-4.16,13.45-8.41,18.9C542.24,353.44,546,343.66,547.52,339.75Z"/><path class="cls-7" d="M575.17,316.92c-.51.37-1,.76-1.48,1.15a158.44,158.44,0,0,1-8.12,14.54c-4.49,7-12.09,14.76-12.09,14.76s.65-1.56,1.6-3.73c-.07.08-.13.17-.2.26,1.34-4.14,2.47-8.34,3.53-12.59,1.33-5.31,3.91-12.19.55-17.14a2.36,2.36,0,0,0-3-1,9.42,9.42,0,0,0-3.1,2,11.71,11.71,0,0,0-1.39,5c-.12,2.82-2.36,15.66-3.92,19.58s-5.28,13.69-11.27,18.86c6.34-12.75,9.11-27.55.59-39.07a2.41,2.41,0,0,0-3.35-.46,4.93,4.93,0,0,0,0,2.07c1.38,6.87-.07,20.24-.9,25.71a56.64,56.64,0,0,1-6.89,19.05c-3.54,6.3-11.77,14.46-18.76,16.71-4.51,1.45-10.95,3.76-15.81,1.89h0a3,3,0,0,0-.67,3.54c4.68,7.81,19.51,3.77,29.12-3.22,1.9,33.37,7.41,70.66,10.78,104.79q1.53,15.44,3.1,30.86c2.95,8.65,8.29,12.22,14.8,9-1.1-10.19-2.77-20.35-3.72-30.5-3.75-39.92-11.16-82.13-9.91-122.29a8,8,0,0,0-.38-2.62c10-3.06,18-9.7,25.31-18.06,8.63-9.85,18.69-23.84,19.15-37.4A2.15,2.15,0,0,0,575.17,316.92Z"/><path class="cls-3" d="M506.93,382.62c7-2.25,15.22-10.41,18.76-16.71a56.64,56.64,0,0,0,6.89-19.05c.83-5.47,2.28-18.84.9-25.71a4.93,4.93,0,0,1,0-2.07,3,3,0,0,0-1.26,1.46c-3.2,8.35-2,17.77-3,26.62-1.95,18.61-16,30.18-19.49,31.78A39.47,39.47,0,0,1,498.59,382c-2.68.36-5.44.6-7.47,2.51C496,386.38,502.42,384.07,506.93,382.62Z"/><path class="cls-7" d="M590.43,519.87c0,.5.06,1,.1,1.49a6,6,0,0,1,4,1.31,89.06,89.06,0,0,1,9.39,7.74q-.13-7.5-.23-15l-8.36,6Z"/><path class="cls-3" d="M589.17,492.68c.15,9.08.65,18.14,1.26,27.19l4.93,1.49,8.36-6c-.07-4.39-.09-6.14-.15-10.55C597.71,504.66,593.11,502.19,589.17,492.68Z"/><path class="cls-7" d="M633.34,320.76c-.22-2.13-3-2.4-4.34-1.32a30.75,30.75,0,0,0-5.91,6.54c1.73-9.24.67-18.66-4.42-26.55-1.65-2.56-5.79-1.94-5.95,1.37-.55,11.28,1.52,21.59-3.57,32.26a36.49,36.49,0,0,1-3.3,5.39c1.88-12.66-2.3-26.57-13.2-32.79a2.38,2.38,0,0,0-3,.52c.47,1.56,1.14,3.7,1.85,4.49,1.1,1.21,9.56,21.82,4.61,34.95-4.55,12.06-13.47,26.34-25,28.53-2.56,2.15-4.39,4.79-1.94,7.43C573.3,386,579.75,379.43,583,377c.87-.65,1.78-1.35,2.68-2.07.67,37.29,3.43,74.54,3.38,111.9,0,2,0,3.92.08,5.88,2.22,9.63,8.56,13,14.42,13.19-.06-4.94-.17-13.56-.22-18.52-.36-39.94-2.64-81.86-3.83-123.36a4.4,4.4,0,0,0-.43-1.56C615.79,360.44,635,336.35,633.34,320.76Z"/><path class="cls-3" d="M596.11,345.62c4.95-13.13-3.51-33.74-4.61-34.95-.71-.79-1.38-2.93-1.85-4.49a2.18,2.18,0,0,0-.43,1.92c1.95,8.63,5.72,16.41,6.19,25.43.46,8.85-2.71,18.24-7.6,25.54-.36.55-8,8.88-11.06,11.13-1.2.88-3.64,2.27-5.63,3.95C582.64,372,591.56,357.68,596.11,345.62Z"/><path class="cls-5" d="M525,600.86l-6.83.68c4.22,18.4,15,31.48,27.55,31.48,16.28,0,29.47-21.86,29.47-48.82a78.32,78.32,0,0,0-1.64-16.08Z"/><path class="cls-5" d="M569.22,554.82c-5.38-11.8-13.92-19.44-23.54-19.44-12.74,0-23.59,13.4-27.71,32.15a79.54,79.54,0,0,0,.16,34l6.83-.68,48.55-32.74A64.39,64.39,0,0,0,569.22,554.82Z"/><path class="cls-4" d="M573.51,568.12a64.39,64.39,0,0,0-4.29-13.3c-3.05,4.71-15.63,12.94-23.54,16.34-13.53,5.81-22.15.13-27.71-3.63a79.54,79.54,0,0,0,.16,34l6.83-.68Z"/><path class="cls-5" d="M604.08,541.61c4.39-1.45,9.82-3.53,15-5.6-4.14-14-11.57-23.3-20-23.3-8,0-15,8.2-19.23,20.76C584.47,538.28,593.42,545.12,604.08,541.61Z"/><path class="cls-5" d="M584.33,569.4l-8.55-.29c1.76,23.35,11.48,41.23,23.22,41.23,13,0,23.51-21.86,23.51-48.82a98.69,98.69,0,0,0-.58-10.76Z"/><path class="cls-5" d="M621.93,550.76A84.54,84.54,0,0,0,619.05,536c-5.15,2.07-10.58,4.15-15,5.6-10.66,3.51-19.61-3.33-24.31-8.14a88.66,88.66,0,0,0-4.27,28c0,2.58.1,5.11.28,7.59l8.55.29Z"/><path class="cls-4" d="M621.93,550.76a102,102,0,0,0-3.37-16.32,53.63,53.63,0,0,1-15.17,8.13c-10.66,3.51-21.35,4.82-26,0-1.56,8-1.6,11.87-1.84,18.95a70.35,70.35,0,0,0,.28,7.59l8.55.29Z"/><path class="cls-3" d="M537.26,323.45s4.4-16.83-7.23-20.55c5.34,5.43,5.86,12.8,5.1,15.49S535.73,325.14,537.26,323.45Z"/><path class="cls-3" d="M594.47,309.94s-1.06-17.36-13.27-17.28c6.76,3.5,9.55,10.34,9.67,13.14S593.54,312,594.47,309.94Z"/><path class="cls-3" d="M558,319.5s5.44-16.52-5.94-21c5,5.75,5.06,13.14,4.13,15.78S556.37,321.09,558,319.5Z"/><path class="cls-3" d="M617.8,302.89s4.32-16.85-7.33-20.51c5.36,5.4,5.93,12.76,5.18,15.46S616.28,304.59,617.8,302.89Z"/><path class="cls-3" d="M576.48,324.05s8.18-16.09-2.79-22.43c3.77,6.41,3.12,14.27,1.75,16.83S574.57,325.42,576.48,324.05Z"/><path class="cls-3" d="M631.52,324.74s13.37-12.94,4.81-22.8c1.88,7.29-.4,14.91-4,17C629.8,320.46,629.19,325.44,631.52,324.74Z"/><path class="cls-5" d="M1026.36,572.81a112.55,112.55,0,0,0-46.07-7c-2,.09-3.92.17-5.91.36-27,2.21-35.7,15.1-62.3,5.36-26.1-9.55-50.71-26.15-77.24-38.28-22.43,29.24-86.57,57.9-165.1,70.75-65.86,10.78-125.67,7.8-161.3-5.57-8.43,4.94-16.09,9.49-22.13,13.19-3.43,2.34-6.92,4.79-10.42,7.31C453,641.21,368.07,705.48,526.24,749.55c51.72,9,140.15,22.58,248.47,32.38l4,.27c102.87,6.44,219.39,38,288.3-51.4C1112.66,671.93,1087.34,596.15,1026.36,572.81Z"/><path class="cls-5" d="M669.57,603.88c78.53-12.85,142.67-41.51,165.1-70.75a180.84,180.84,0,0,0-29.5-10.82c-71-17.06-149.14.54-217.77,31.38-14.38,7.52-51.06,28.19-79.13,44.62C543.9,611.68,603.71,614.66,669.57,603.88Z"/><path class="cls-8" d="M669.57,603.88c78.53-12.85,142.67-41.51,165.1-70.75a180.84,180.84,0,0,0-29.5-10.82c-71-17.06-149.14.54-217.77,31.38-14.38,7.52-51.06,28.19-79.13,44.62C543.9,611.68,603.71,614.66,669.57,603.88Z"/><path class="cls-4" d="M562.49,740.51c114.9-49.59-63.86-2.32-105.81-44.89-30.39-30.85,5.89-58.41,17.19-76.14C459.21,630,444.38,642,433.08,654.25c-9.28,10.06-16.18,20.32-18.64,30.14-5.36,21.88,11.21,34.23,30.05,44.28,13.35,7.13,49.63,16.28,79.73,21.42C545.49,747.49,559.39,741.84,562.49,740.51Z"/><path class="cls-5" d="M840.51,544.79c32,14.24,53,37.75,46.92,52.5s-36.82,15.18-68.77.94"/><path class="cls-4" d="M875,566.13c1.35,1.3,2.63,2.63,3.82,4,9.1,10.18,12.41,19.94,9.33,27.49-6.34,15.48-37,16.16-69.8,1.53a.9.9,0,0,1-.3-1.19.85.85,0,0,1,1-.6c31.53,14.06,61.92,13.91,67.74-.33,2.71-6.63-.62-15.89-9.12-25.4-8.8-9.85-22.13-19.06-37.51-25.92a.9.9,0,0,1-.29-1.19c.2-.49.66-.76,1-.6C854.32,549.88,866.21,557.67,875,566.13Z"/><path class="cls-5" d="M815.18,578.33c26.47,22.65,39.86,51,29.92,63.43s-39.46,4-65.92-18.6"/><path class="cls-4" d="M842,608.46c.92,1.64,1.77,3.26,2.53,4.88,5.8,12.3,6.19,22.56,1.11,28.89-10.44,13-39.83,4.86-67.08-18.32a.9.9,0,0,1,.06-1.22.83.83,0,0,1,1.15-.28c26.12,22.35,55.17,30.82,64.77,18.88,4.46-5.56,3.91-15.34-1.51-26.84-5.61-11.89-15.72-24.47-28.46-35.37a.9.9,0,0,1,0-1.22.83.83,0,0,1,1.15-.28C826.92,587.11,836.07,597.91,842,608.46Z"/><path class="cls-5" d="M775,606.5c20.72,27.89,27.46,58.47,15,68.3s-39.26-4.79-60-32.68"/><path class="cls-4" d="M794.37,641.75q.81,2.68,1.38,5.3c2.92,13.24,1,23.3-5.32,28.33-13,10.32-39.8-4.09-61.16-32.66a.9.9,0,0,1,.32-1.18.84.84,0,0,1,1.18,0c20.45,27.52,46.82,42.19,58.8,32.69,5.57-4.41,7.2-14,4.48-26.42-2.83-12.81-9.88-27.28-19.85-40.7a.91.91,0,0,1,.32-1.18.85.85,0,0,1,1.19,0C784.42,617.64,790.93,630.17,794.37,641.75Z"/><path class="cls-5" d="M726.18,627.42c14.72,31.41,15.21,62.68,1.11,69.83s-37.47-12.52-52.18-43.94"/><path class="cls-4" d="M738.16,665.78c.16,1.86.26,3.68.29,5.46.21,13.53-3.64,23-10.86,26.66-14.8,7.51-38.13-11.93-53.33-44.15a.88.88,0,0,1,.54-1.09.83.83,0,0,1,1.16.22c14.53,31,37.41,50.62,51,43.72,6.33-3.21,9.85-12.31,9.65-25-.21-13.1-4.22-28.65-11.3-43.78a.88.88,0,0,1,.55-1.08A.83.83,0,0,1,727,627C733.23,640.2,737.1,653.76,738.16,665.78Z"/><path class="cls-5" d="M674.12,639.6c7.8,33.8,1.73,64.48-13.56,68.51s-34-20.09-41.8-53.89"/><path class="cls-4" d="M677.79,679.61q-.35,2.79-.86,5.4c-2.63,13.29-8.38,21.74-16.2,23.8-16,4.24-34.79-19.66-42.9-54.35-.09-.39.25-.81.76-1a.84.84,0,0,1,1.09.46c7.7,33.36,26,57.33,40.72,53.44,6.87-1.81,12.22-10,14.67-22.39,2.54-12.85,1.88-28.9-1.88-45.18-.09-.39.26-.81.77-.94a.83.83,0,0,1,1.09.45C678.33,653.58,679.27,667.64,677.79,679.61Z"/><path class="cls-5" d="M622,642.37c-1.14,34.72-14.91,62.84-30.74,62.81s-27.74-28.19-26.6-62.91"/><path class="cls-4" d="M615.26,682q-1.05,2.6-2.22,5c-6,12.18-13.71,18.88-21.81,18.86-16.61,0-28.6-28-27.53-63.64a.9.9,0,0,1,1-.71c.53,0,.95.32.93.72-1.13,34.26,10.38,62.16,25.66,62.19,7.11,0,14.38-6.51,20-17.89,5.76-11.78,9.25-27.49,9.8-44.21a.91.91,0,0,1,1-.72c.53,0,1,.33.93.73C622.48,657,619.77,670.83,615.26,682Z"/><path class="cls-5" d="M578.13,646.5c-13.52,32.1-36.5,53.5-51.32,47.8S511,658,524.47,625.85"/><path class="cls-4" d="M557.59,681.23c-1.27,1.38-2.57,2.67-3.87,3.89-10,9.27-19.61,12.76-27.19,9.85-15.54-6-16.75-36.46-2.95-69.47a.89.89,0,0,1,1.17-.32c.5.19.78.64.62,1-13.35,31.68-12.57,61.94,1.73,67.44,6.65,2.56,15.8-.94,25.1-9.6,9.62-9,18.52-22.42,25-37.87a.88.88,0,0,1,1.17-.33c.5.19.78.65.62,1C573.34,660.35,565.84,672.36,557.59,681.23Z"/><path class="cls-5" d="M548.48,644.22c-27.74,21.31-58.42,28.58-68.52,16.25s4.2-39.61,31.94-60.91"/><path class="cls-4" d="M513.31,664.34c-1.79.57-3.57,1.06-5.31,1.47-13.28,3.15-23.45,1.41-28.61-4.9-10.6-12.94,3.41-40.22,31.9-62.1a.9.9,0,0,1,1.19.31.85.85,0,0,1,0,1.19c-27.38,21-41.72,47.81-32,59.72,4.54,5.53,14.26,7,26.68,4.08,12.85-3.05,27.29-10.38,40.65-20.63a.9.9,0,0,1,1.19.3.84.84,0,0,1,0,1.19C537.42,653.93,524.91,660.69,513.31,664.34Z"/><path class="cls-8" d="M799.41,528c12.72,7.24,20.51,17.88,17.4,23.79s-16,4.82-28.68-2.42"/><path class="cls-9" d="M812.88,538.24c.51.61,1,1.21,1.43,1.81,3.38,4.62,4.36,8.82,2.76,11.84-3.26,6.19-16.06,5.22-29.13-2.21a.38.38,0,0,1-.08-.51.36.36,0,0,1,.46-.21c12.56,7.14,25.22,8.32,28.22,2.62,1.4-2.65.4-6.64-2.76-11s-8.44-8.84-14.56-12.32a.38.38,0,0,1-.08-.51c.1-.19.31-.29.45-.2A50,50,0,0,1,812.88,538.24Z"/><path class="cls-8" d="M774.54,550.24c10.22,10.35,14.8,22.62,10.24,27.43s-16.56.31-26.78-10"/><path class="cls-9" d="M784.65,563.71c.33.71.62,1.42.88,2.12,2,5.31,1.79,9.59-.54,12-4.79,5-16.74.64-27.26-10a.38.38,0,0,1,.06-.51.35.35,0,0,1,.49-.07c10.09,10.2,21.88,14.74,26.28,10.1,2.05-2.16,2.17-6.24.31-11.21a46.72,46.72,0,0,0-10.61-15.71.36.36,0,0,1,.07-.5c.15-.16.37-.2.48-.08A49.55,49.55,0,0,1,784.65,563.71Z"/><path class="cls-8" d="M742.7,568.1c7.4,12.49,8.86,25.49,3.28,29s-16.11-3.7-23.5-16.19"/><path class="cls-9" d="M749.24,583.59c.14.77.25,1.52.34,2.26.63,5.63-.59,9.73-3.45,11.54-5.86,3.73-16.36-3.43-24-16.23a.38.38,0,0,1,.18-.48.36.36,0,0,1,.5.05c7.3,12.32,17.62,19.57,23,16.14,2.5-1.59,3.6-5.52,3-10.78a46.75,46.75,0,0,0-6.48-17.78.38.38,0,0,1,.19-.47.35.35,0,0,1,.49,0A49.83,49.83,0,0,1,749.24,583.59Z"/><path class="cls-8" d="M706.13,580.54c4.27,13.92,2.64,27-3.64,29.09s-14.84-7.41-19.11-21.33"/><path class="cls-9" d="M708.86,597.19c-.05.78-.11,1.54-.21,2.28-.7,5.64-2.86,9.35-6.08,10.45-6.59,2.25-15.14-7.2-19.57-21.49a.37.37,0,0,1,.29-.42.35.35,0,0,1,.47.16c4.21,13.74,12.57,23.24,18.64,21.17,2.82-1,4.82-4.54,5.48-9.81a46.79,46.79,0,0,0-2.13-18.86.37.37,0,0,1,.29-.42.35.35,0,0,1,.47.16A49.86,49.86,0,0,1,708.86,597.19Z"/><path class="cls-8" d="M666.57,586.69c.72,14.66-4.1,27-10.77,27.53s-12.67-10.92-13.39-25.58"/><path class="cls-9" d="M665.11,603.63c-.24.76-.49,1.49-.77,2.19-2.08,5.34-5.11,8.43-8.53,8.7-7,.57-13-10.79-13.81-25.85a.39.39,0,0,1,.39-.34.35.35,0,0,1,.42.27c.72,14.48,6.54,25.83,13,25.31,3-.24,5.84-3.24,7.79-8.23,2-5.16,2.94-11.9,2.6-19,0-.17.16-.32.38-.34s.42.1.42.27A50.11,50.11,0,0,1,665.11,603.63Z"/><path class="cls-8" d="M626.61,588.21c-3.36,14.49-11.48,25.17-18.13,23.84s-9.31-14.15-6-28.64"/><path class="cls-9" d="M620.49,604.32q-.66,1-1.35,1.92c-3.52,4.62-7.32,6.79-10.73,6.11-7-1.39-9.69-14.13-6.28-29a.37.37,0,0,1,.47-.22c.22,0,.37.21.33.38-3.32,14.3-.8,27,5.62,28.26,3,.6,6.59-1.54,9.87-5.86s6.17-10.79,7.79-17.76a.38.38,0,0,1,.47-.22c.23,0,.38.21.34.38A51.19,51.19,0,0,1,620.49,604.32Z"/><path class="cls-8" d="M590.51,583.46c-7.92,12.9-19.2,20.58-25.19,17.16s-4.43-16.66,3.49-29.57"/><path class="cls-9" d="M579.4,597q-1,.76-1.92,1.41c-4.88,3.33-9.26,4.2-12.33,2.45-6.28-3.6-4.83-16.79,3.3-30a.39.39,0,0,1,.53-.06.36.36,0,0,1,.2.47c-7.82,12.74-9.48,25.79-3.7,29.09,2.69,1.54,6.86.64,11.42-2.47,4.73-3.22,9.43-8.42,13.25-14.63a.39.39,0,0,1,.53-.06c.2.11.29.33.19.47A51.63,51.63,0,0,1,579.4,597Z"/><path class="cls-4" d="M922.65,590.76a7.05,7.05,0,0,0,1.23-2.8,23,23,0,0,0-2.47,2.14c-7.73,9.44-21.17,24.64-35.06,40.47-15.65,17.84-29.47,6.44-45.08-6-63.82-51-188.48-4.07-229.28,26.5C574.46,680,519.61,738.57,498.6,788.64a130.14,130.14,0,0,0-5.34,15.12,282.41,282.41,0,0,0,48.77,9c66.23,6.79,142.31-4,201.32-14.65a292.91,292.91,0,0,0,45-12.6c2.66-1,5.31-2,7.94-3.12,17.86,5.83,43.87,9.69,80.07,11,104.77,3.76,122.91-13.74,136.74-19C822.14,792.67,882,644.05,922.65,590.76Z"/><path class="cls-5" d="M874.72,689.17c-29.93-128.49-207.35-71.23-258.67-34.87-38.3,27.87-94.7,85-117,134.49a129.51,129.51,0,0,0-5.75,15c15.16,4.79,31.51,8,48.51,10.33,88.65,12.08,180.58-2.2,256.72-23.65C851.76,775.44,887,741.76,874.72,689.17Z"/><path class="cls-10" d="M1024.76,607.77a2.79,2.79,0,0,0-3.91-.54l-18,13.6a.86.86,0,0,1-1.2-.16l-13.6-18a2.8,2.8,0,0,0-4.46,3.37l13.61,18a.85.85,0,0,1-.16,1.19l-18,13.61a2.8,2.8,0,1,0,3.37,4.46l18-13.61a.85.85,0,0,1,1.19.16l13.61,18a2.79,2.79,0,0,0,3.91.54,2.79,2.79,0,0,0,.54-3.91l-13.6-18a.85.85,0,0,1,.16-1.19l18-13.61A2.79,2.79,0,0,0,1024.76,607.77Z"/><path class="cls-3" d="M623.09,326a75.2,75.2,0,0,1-7,13.77c7.09-8.75,10.16-14.22,12.86-20.31A33.75,33.75,0,0,0,623.09,326Z"/><path class="cls-3" d="M612.7,301.26s2.27,10.63,1.75,18.36-2.77,12.41-8.6,18.83c0,0,5.59-6.46,6.61-18.28C613,313.86,612.16,306.44,612.7,301.26Z"/><path class="cls-5" d="M559.36,778.12c-16.91,6-32.28,6.1-34.33.28S535,763,552,757"/><path class="cls-4" d="M539.33,783c-.93.06-1.83.1-2.71.11-6.65.05-10.89-1.56-11.94-4.54-2.15-6.11,9.78-15.7,27.15-21.84a.37.37,0,1,1,.25.7c-16.69,5.9-28.67,15.27-26.7,20.89.92,2.62,5,4.09,11.24,4,6.44,0,14.47-1.67,22.62-4.54a.36.36,0,0,1,.47.22.37.37,0,0,1-.22.48A78.35,78.35,0,0,1,539.33,783Z"/><path class="cls-5" d="M568.48,797.41c-16.46,7.15-31.78,8.35-34.23,2.68s8.65-14.83,25.11-22"/><path class="cls-4" d="M545.73,804c-6.4.43-10.59-.88-11.82-3.72s.67-6.66,5.57-10.86c4.59-4,11.6-8.07,19.73-11.6a.37.37,0,0,1,.3.68c-8.07,3.51-15,7.58-19.55,11.48s-6.46,7.47-5.36,10,5.27,3.74,11.48,3.24c6.43-.5,14.33-2.67,22.25-6.11a.38.38,0,0,1,.3.69c-8,3.47-16,5.66-22.49,6.17Z"/><path class="cls-5" d="M665.39,714.17c-32.22,9-60.84,7.28-63.91-3.81S622.05,683,654.28,674"/><path class="cls-4" d="M627.51,720.64c-1.73,0-3.42,0-5-.15-12.39-.74-20.08-4.27-21.65-10-3.22-11.64,20.18-28,53.28-37.22a.7.7,0,0,1,.37,1.35c-31.8,8.87-55.27,24.79-52.31,35.5,1.38,5,8.82,8.24,20.4,8.93,12,.71,27.14-1.27,42.66-5.6a.7.7,0,0,1,.37,1.34C652,718.63,638.72,720.64,627.51,720.64Z"/><path class="cls-5" d="M679.93,751.23c-31.53,11.22-60.19,11.52-64,.67s18-26.51,49.49-37.73"/><path class="cls-4" d="M636.77,760.54c-12,0-19.6-3-21.52-8.41s2.09-12.3,11.73-19.52c9-6.76,22.6-13.55,38.18-19.1a.7.7,0,0,1,.47,1.32c-15.46,5.5-28.89,12.21-37.82,18.9s-13,13.08-11.25,17.93,9.34,7.61,21,7.48c12-.12,27-3.17,42.17-8.57a.7.7,0,0,1,.47,1.32c-15.32,5.45-30.45,8.52-42.62,8.65Z"/><path class="cls-5" d="M694,790.61c-31.52,11.22-60.18,11.52-64,.67s18.62-28.75,50.14-40"/><path class="cls-4" d="M650.86,799.92c-12,0-19.6-3-21.52-8.41s2.31-12.88,12-20.62c9.53-7.6,23.21-14.79,38.53-20.24a.7.7,0,0,1,.46,1.32c-15.17,5.4-28.71,12.5-38.13,20-9.08,7.24-13.3,14.19-11.58,19.06s9.33,7.59,21,7.48c12-.12,27-3.17,42.17-8.57a.7.7,0,0,1,.47,1.32c-15.32,5.45-30.46,8.52-42.62,8.65Z"/><path class="cls-5" d="M770.43,674c-43.15,12.13-81.46,9.83-85.57-5.15s27.53-37,70.68-49.08"/><path class="cls-4" d="M719.71,682.74c-2.32,0-4.58-.07-6.76-.2-16.59-1-26.88-5.76-29-13.43-4.31-15.71,27-37.78,71.33-50.24a.93.93,0,0,1,1.15.65.94.94,0,0,1-.65,1.16c-42.58,12-74,33.48-70,47.93,1.84,6.73,11.8,11.12,27.3,12,16.05,1,36.35-1.72,57.12-7.55a.92.92,0,0,1,1.15.65.94.94,0,0,1-.65,1.16C752.53,680,734.72,682.74,719.71,682.74Z"/><path class="cls-5" d="M789.89,724c-42.21,15.15-80.59,15.55-85.72.9s24.05-35.78,66.26-50.93"/><path class="cls-4" d="M732.11,736.61c-16,0-26.25-4-28.82-11.36-2.63-7.5,2.8-16.61,15.7-26.34,12.1-9.14,30.26-18.3,51.13-25.79a.94.94,0,0,1,.62,1.78c-20.69,7.43-38.68,16.49-50.64,25.52s-17.35,17.65-15.05,24.2,12.5,10.28,28.07,10.1c16.09-.17,36.14-4.28,56.46-11.57a.92.92,0,0,1,1.18.57,1,1,0,0,1-.56,1.21c-20.51,7.35-40.77,11.5-57.06,11.67Z"/><path class="cls-5" d="M808.75,777.2c-42.21,15.15-80.59,15.55-85.72.9s24.92-38.81,67.13-54"/><path class="cls-4" d="M751,789.77c-16,0-26.25-4-28.82-11.36s3.1-17.38,16.11-27.84c12.76-10.25,31.08-20,51.59-27.31a.93.93,0,0,1,1.19.57.94.94,0,0,1-.57,1.2c-20.32,7.29-38.45,16.89-51.05,27-12.16,9.77-17.82,19.15-15.51,25.73S736.41,788,752,787.88c16.09-.17,36.14-4.28,56.46-11.57a.93.93,0,0,1,1.19.57,1,1,0,0,1-.57,1.21c-20.51,7.36-40.77,11.5-57.06,11.67Z"/><path class="cls-5" d="M1038.8,733c1.88,14.52-1.94,27.16-8.53,28.23s-13.46-9.86-15.34-24.38"/><path class="cls-4" d="M1038.68,749.93c-.17.77-.36,1.52-.58,2.24-1.66,5.47-4.42,8.78-7.8,9.33-6.91,1.11-13.84-9.7-15.77-24.62,0-.17.14-.33.36-.37s.42.07.44.24c1.85,14.34,8.54,25.17,14.9,24.14,3-.47,5.54-3.68,7.09-8.8,1.6-5.29,2-12.07,1.08-19.06,0-.17.14-.33.36-.37s.42.07.44.24A50,50,0,0,1,1038.68,749.93Z"/><path class="cls-5" d="M1016.79,737.9c.11,14.46-5.15,26.39-11.73,26.65s-12-11.27-12.12-25.73"/><path class="cls-4" d="M1014.65,754.51c-.26.74-.54,1.44-.84,2.12-2.27,5.17-5.38,8.09-8.75,8.22-6.91.26-12.37-11.16-12.52-26,0-.16.18-.3.4-.31s.4.12.4.28c.1,14.28,5.36,25.69,11.71,25.44,3-.11,5.88-2.94,8-7.77a46.54,46.54,0,0,0,3.33-18.55.38.38,0,0,1,.4-.32c.22,0,.4.12.4.28A49.24,49.24,0,0,1,1014.65,754.51Z"/><path class="cls-5" d="M993.26,739.7c-1.48,14.26-8,25.44-14.48,25s-10.6-12.42-9.12-26.68"/><path class="cls-4" d="M989.34,755.83c-.34.7-.7,1.36-1.06,2-2.81,4.84-6.19,7.37-9.53,7.13-6.84-.49-11-12.35-9.48-27,0-.16.2-.28.42-.26a.35.35,0,0,1,.37.32c-1.46,14.07,2.46,25.89,8.75,26.35,2.93.21,6.11-2.26,8.74-6.79a46.1,46.1,0,0,0,5.32-17.91.37.37,0,0,1,.42-.27c.22,0,.39.16.37.33A49,49,0,0,1,989.34,755.83Z"/><path class="cls-5" d="M970.3,738c-3.25,13.9-11,24.13-17.43,22.85s-8.92-13.58-5.67-27.48"/><path class="cls-4" d="M964.4,753.46c-.42.64-.85,1.26-1.3,1.84-3.37,4.43-7,6.51-10.29,5.85-6.7-1.34-9.29-13.56-6-27.85a.37.37,0,0,1,.45-.21c.22,0,.36.21.32.37-3.2,13.71-.79,25.88,5.36,27.11,2.87.58,6.32-1.47,9.48-5.61a45.92,45.92,0,0,0,7.49-17,.37.37,0,0,1,.45-.22c.22,0,.36.21.32.37A48.56,48.56,0,0,1,964.4,753.46Z"/><path class="cls-5" d="M949.56,732.63c-5.48,13.17-14.86,22-20.94,19.67s-6.56-14.86-1.08-28"/><path class="cls-4" d="M941.21,746.89c-.52.57-1.05,1.1-1.58,1.6-4.06,3.82-8,5.27-11.12,4.09-6.38-2.43-6.93-14.91-1.34-28.46a.37.37,0,0,1,.48-.14.35.35,0,0,1,.26.42c-5.41,13-5,25.4.83,27.63,2.73,1,6.47-.41,10.27-4a46,46,0,0,0,10.19-15.56.36.36,0,0,1,.48-.14c.2.08.32.26.25.42A48.69,48.69,0,0,1,941.21,746.89Z"/><path class="cls-5" d="M932.63,723.67c-8.31,11.69-19.45,18.23-24.9,14.61s-3.12-16,5.19-27.71"/><path class="cls-4" d="M921.27,735.79c-.64.43-1.27.84-1.91,1.21-4.82,2.83-9,3.38-11.8,1.53-5.71-3.8-3.47-16.15,5-28.18a.37.37,0,0,1,.5,0,.35.35,0,0,1,.16.46c-8.2,11.54-10.6,23.76-5.34,27.25,2.44,1.62,6.43,1,10.94-1.61a46.07,46.07,0,0,0,13.45-13,.37.37,0,0,1,.5,0,.35.35,0,0,1,.16.46A49.25,49.25,0,0,1,921.27,735.79Z"/><path class="cls-5" d="M920.63,710.51c-11.27,9.06-23.89,12.34-28.18,7.34s1.38-16.41,12.66-25.47"/><path class="cls-4" d="M906.28,719.14q-1.11.38-2.19.66c-5.46,1.42-9.68.8-11.87-1.77-4.5-5.25,1.07-16.62,12.63-26a.37.37,0,0,1,.49.12c.14.17.16.39,0,.49-11.13,8.94-16.82,20.14-12.68,25,1.92,2.25,6,2.77,11.06,1.44a46.38,46.38,0,0,0,16.62-8.89.38.38,0,0,1,.5.11.35.35,0,0,1,0,.49A49.11,49.11,0,0,1,906.28,719.14Z"/><path class="cls-5" d="M914.6,691.24c-13.51,5.66-26.71,5.33-29.48-.75s5.93-15.59,19.44-21.25"/><path class="cls-4" d="M898.21,695.63c-.79,0-1.56,0-2.31,0-5.72-.14-9.65-1.93-11.06-5-2.91-6.37,5.68-15.92,19.55-21.74a.38.38,0,0,1,.45.25c.09.21,0,.43-.11.49-13.34,5.59-22,14.9-19.33,20.76,1.24,2.73,5,4.37,10.36,4.51a47,47,0,0,0,18.67-4,.38.38,0,0,1,.45.25.37.37,0,0,1-.11.49A50.2,50.2,0,0,1,898.21,695.63Z"/><path class="cls-5" d="M350.49,702.5c-52.45,7.65-99,6.2-104-3.25s33.47-23.3,85.91-31"/><path class="cls-4" d="M288.83,708c-2.82,0-5.56,0-8.21-.13-20.16-.63-32.68-3.64-35.23-8.47-5.24-9.91,32.84-23.83,86.7-31.69a1.44,1.44,0,0,1,1.39.41c.17.32-.18.65-.79.74-51.76,7.55-89.94,21.11-85.12,30.22,2.24,4.25,14.34,7,33.19,7.61,19.51.6,44.18-1.09,69.43-4.77a1.44,1.44,0,0,1,1.39.41c.16.32-.19.65-.79.73A442.61,442.61,0,0,1,288.83,708Z"/><path class="cls-5" d="M374.13,734.05c-51.3,9.56-97.94,9.81-104.18.57s29.24-22.57,80.54-32.12"/><path class="cls-4" d="M303.9,742c-19.48,0-31.89-2.53-35-7.16s3.41-10.48,19.08-16.62c14.71-5.76,36.78-11.54,62.15-16.26a1.55,1.55,0,0,1,1.44.36c.21.31-.09.65-.68.76-25.16,4.69-47,10.4-61.55,16.09s-21.1,11.14-18.31,15.27,15.21,6.48,34.12,6.37c19.56-.11,43.93-2.7,68.63-7.3a1.55,1.55,0,0,1,1.44.36c.21.31-.1.65-.69.76-24.92,4.64-49.56,7.26-69.36,7.37Z"/></svg>