<svg id="Layer_1" data-name="Layer 1" xmlns="http://www.w3.org/2000/svg" viewBox="0 0 159.01 159.01"><defs><style>.cls-1{fill:#3498db;}</style></defs><path class="cls-1" d="M79.51,10.19A69.31,69.31,0,0,0,19.56,44.84H33.37A58.18,58.18,0,0,1,56.76,26.42a77.86,77.86,0,0,0-7.5,18.42H61.43C66,30.64,73,21.75,79.51,21.75S93,30.64,97.58,44.84h12.17a77.86,77.86,0,0,0-7.49-18.42,58.21,58.21,0,0,1,23.4,18.42h13.8A69.34,69.34,0,0,0,79.51,10.19Zm-59.95,104a69.2,69.2,0,0,0,119.9,0h-13.8a58.19,58.19,0,0,1-23.4,18.41,77.77,77.77,0,0,0,7.49-18.41H97.58c-4.56,14.2-11.53,23.09-18.07,23.09S66,128.38,61.45,114.18H49.26a77.77,77.77,0,0,0,7.5,18.41,58.16,58.16,0,0,1-23.39-18.41Z"/><path class="cls-1" d="M22,61.26H12.14V53.71H22ZM12.14,65H22V95.19H12.14Z"/><path class="cls-1" d="M48.63,76.08a4.61,4.61,0,0,0-4.82-4.36c-5.52,0-6.4,4.71-6.4,8.89,0,3.89,1.69,7.9,5.87,7.9,3.49,0,5.17-1.91,5.64-5.17h9.59c-.93,8.14-7.09,12.73-15.17,12.73-9.06,0-15.8-6.16-15.8-15.46,0-9.59,6.1-16.44,15.8-16.44,7.55,0,14.12,4,14.88,11.91Z"/><path class="cls-1" d="M63.44,65H73v4.12h.12a10,10,0,0,1,8.65-5c3.78,0,7.15,1.22,8.78,4.88A10.83,10.83,0,0,1,100,64.17c9.59,0,10.63,7.26,10.63,13v18h-9.87V77.47c0-3.25-1.57-5.17-4.13-5.17-4.24,0-4.65,3.26-4.65,8.14V95.19H82.09V78.05c0-3.54-1-5.75-3.71-5.75-3.55,0-5.06,2.09-5.06,8.19v14.7H63.44Z"/><path class="cls-1" d="M117.24,65h9.42v3.48h.11a9.52,9.52,0,0,1,8.31-4.35c9.47,0,13.48,8.07,13.48,16.61,0,7.85-4.18,15.29-12.72,15.29a10.17,10.17,0,0,1-8.6-4.13h-.12v13.37h-9.88Zm9.53,14.76c0,5.28,1.51,8.71,6,8.71s5.92-4.59,5.92-8.71c0-3.84-1.45-8.08-5.86-8.08C130.2,71.72,126.77,73.52,126.77,79.8Z"/></svg>