<?xml version="1.0" encoding="utf-8"?>
<svg xmlns="http://www.w3.org/2000/svg" viewBox="0 0 50 50" fill="#000000"><path d="M 0.8125 4 C 0.335938 4.089844 -0.0078125 4.511719 0 5 L 0 45 C 0 45.550781 0.449219 46 1 46 L 49 46 C 49.550781 46 50 45.550781 50 45 L 50 5 C 50 4.449219 49.550781 4 49 4 L 1 4 C 0.96875 4 0.9375 4 0.90625 4 C 0.875 4 0.84375 4 0.8125 4 Z M 2 6 L 48 6 L 48 44 L 2 44 Z M 41 12.1875 C 40.707031 12.21875 40.445313 12.378906 40.28125 12.625 L 38.0625 15.75 L 36.3125 14.40625 C 35.871094 14.070313 35.242188 14.152344 34.90625 14.59375 C 34.570313 15.035156 34.652344 15.664063 35.09375 16 L 37.6875 18 C 37.90625 18.167969 38.179688 18.242188 38.453125 18.199219 C 38.726563 18.160156 38.96875 18.007813 39.125 17.78125 L 41.90625 13.78125 C 42.144531 13.460938 42.171875 13.035156 41.976563 12.6875 C 41.777344 12.34375 41.394531 12.144531 41 12.1875 Z M 9 14 L 9 16 L 29 16 L 29 14 Z M 41 22.1875 C 40.707031 22.21875 40.445313 22.378906 40.28125 22.625 L 38.0625 25.75 L 36.3125 24.40625 C 35.871094 24.070313 35.242188 24.152344 34.90625 24.59375 C 34.570313 25.035156 34.652344 25.664063 35.09375 26 L 37.6875 28 C 37.90625 28.167969 38.179688 28.242188 38.453125 28.199219 C 38.726563 28.160156 38.96875 28.007813 39.125 27.78125 L 41.90625 23.78125 C 42.144531 23.460938 42.171875 23.035156 41.976563 22.6875 C 41.777344 22.34375 41.394531 22.144531 41 22.1875 Z M 9 24 L 9 26 L 29 26 L 29 24 Z M 41 32.1875 C 40.707031 32.21875 40.445313 32.378906 40.28125 32.625 L 38.0625 35.75 L 36.3125 34.40625 C 35.871094 34.070313 35.242188 34.152344 34.90625 34.59375 C 34.570313 35.035156 34.652344 35.664063 35.09375 36 L 37.6875 38 C 37.90625 38.167969 38.179688 38.242188 38.453125 38.199219 C 38.726563 38.160156 38.96875 38.007813 39.125 37.78125 L 41.90625 33.78125 C 42.144531 33.460938 42.171875 33.035156 41.976563 32.6875 C 41.777344 32.34375 41.394531 32.144531 41 32.1875 Z M 9 34 L 9 36 L 29 36 L 29 34 Z" fill="#000000"/></svg>
