<?xml version="1.0" encoding="UTF-8"?>
<svg xmlns="http://www.w3.org/2000/svg" xmlns:xlink="http://www.w3.org/1999/xlink" width="60pt" height="60pt" viewBox="0 0 60 60" version="1.1">
<g id="surface6542812">
<path style=" stroke:none;fill-rule:nonzero;fill:rgb(20.392157%,59.607843%,85.882353%);fill-opacity:1;" d="M 30 6 C 20.796875 6 11.222656 8.074219 11.222656 8.074219 L 11.214844 8.082031 C 9.347656 8.457031 8.003906 10.09375 8 12 L 8 24 C 8 44.796875 28.042969 53.488281 28.042969 53.488281 C 28.640625 53.824219 29.316406 54 30 54 C 30.683594 54 31.355469 53.824219 31.949219 53.488281 L 31.957031 53.488281 C 31.960938 53.488281 52 44.796875 52 24 L 52 12 C 52 10.089844 50.652344 8.445312 48.777344 8.074219 C 48.777344 8.074219 39.203125 6 30 6 Z M 20.066406 19.707031 C 22.703125 19.707031 24.574219 21.183594 24.648438 23.316406 L 22.289062 23.316406 C 22.171875 22.367188 21.292969 21.738281 20.082031 21.738281 C 18.828125 21.734375 18 22.320312 18 23.230469 C 18 23.96875 18.574219 24.394531 19.976562 24.691406 L 21.421875 25 C 23.828125 25.507812 24.863281 26.542969 24.863281 28.402344 C 24.863281 30.816406 23.015625 32.296875 20.007812 32.296875 C 17.152344 32.296875 15.300781 30.890625 15.210938 28.660156 L 17.632812 28.660156 C 17.75 29.628906 18.730469 30.257812 20.140625 30.257812 C 21.441406 30.257812 22.363281 29.625 22.363281 28.71875 C 22.363281 27.953125 21.765625 27.515625 20.296875 27.203125 L 18.738281 26.871094 C 16.554688 26.414062 15.484375 25.273438 15.484375 23.449219 C 15.484375 21.191406 17.300781 19.707031 20.066406 19.707031 Z M 31.546875 19.707031 C 34.183594 19.707031 36.054688 21.183594 36.128906 23.316406 L 33.773438 23.316406 C 33.65625 22.367188 32.773438 21.738281 31.5625 21.738281 C 30.308594 21.738281 29.480469 22.324219 29.480469 23.234375 C 29.480469 23.972656 30.054688 24.398438 31.457031 24.695312 L 32.898438 25 C 35.304688 25.507812 36.34375 26.542969 36.34375 28.402344 C 36.34375 30.816406 34.492188 32.296875 31.488281 32.296875 C 28.632812 32.296875 26.78125 30.890625 26.691406 28.660156 L 29.117188 28.660156 C 29.234375 29.628906 30.210938 30.257812 31.621094 30.257812 C 32.921875 30.257812 33.847656 29.625 33.847656 28.71875 C 33.847656 27.953125 33.25 27.515625 31.78125 27.203125 L 30.21875 26.871094 C 28.035156 26.414062 26.964844 25.273438 26.964844 23.449219 C 26.964844 21.191406 28.78125 19.707031 31.546875 19.707031 Z M 38.710938 20.011719 L 41.21875 20.011719 L 41.21875 29.804688 L 46.546875 29.804688 L 46.546875 31.988281 L 38.710938 31.988281 Z M 38.710938 20.011719 "/>
</g>
</svg>
