<?xml version="1.0" encoding="UTF-8"?>
<svg xmlns="http://www.w3.org/2000/svg" xmlns:xlink="http://www.w3.org/1999/xlink" width="80pt" height="80pt" viewBox="0 0 80 80" version="1.1">
<g id="surface6757634">
<path style=" stroke:none;fill-rule:nonzero;fill:rgb(20.392157%,59.607843%,85.882353%);fill-opacity:1;" d="M 40 7 C 26.023438 7 14.113281 15.71875 9.304688 28 L 9 28 C 7.355469 28 6 29.355469 6 31 L 6 49 C 6 50.644531 7.355469 52 9 52 L 9.304688 52 C 14.113281 64.28125 26.023438 73 40 73 C 53.976562 73 65.886719 64.28125 70.691406 52 L 71 52 C 72.644531 52 74 50.644531 74 49 L 74 31 C 74 29.355469 72.644531 28 71 28 L 70.691406 28 C 65.886719 15.71875 53.976562 7 40 7 Z M 40 9 C 39.449219 9 39 9.449219 39 10 C 39 10.550781 39.449219 11 40 11 C 40.550781 11 41 10.550781 41 10 C 41 9.480469 40.597656 9.046875 40.078125 9.003906 C 52.910156 9.035156 63.851562 16.875 68.535156 28 L 11.464844 28 C 16.15625 16.851562 27.132812 9 40 9 Z M 33 10 C 32.449219 10 32 10.449219 32 11 C 32 11.550781 32.449219 12 33 12 C 33.550781 12 34 11.550781 34 11 C 34 10.449219 33.550781 10 33 10 Z M 47 10 C 46.449219 10 46 10.449219 46 11 C 46 11.550781 46.449219 12 47 12 C 47.550781 12 48 11.550781 48 11 C 48 10.449219 47.550781 10 47 10 Z M 30 13 C 29.449219 13 29 13.449219 29 14 C 29 14.550781 29.449219 15 30 15 C 30.550781 15 31 14.550781 31 14 C 31 13.449219 30.550781 13 30 13 Z M 40 13 C 39.449219 13 39 13.449219 39 14 C 39 14.550781 39.449219 15 40 15 C 40.550781 15 41 14.550781 41 14 C 41 13.449219 40.550781 13 40 13 Z M 50 13 C 49.449219 13 49 13.449219 49 14 C 49 14.550781 49.449219 15 50 15 C 50.550781 15 51 14.550781 51 14 C 51 13.449219 50.550781 13 50 13 Z M 20 17 C 19.449219 17 19 17.449219 19 18 C 19 18.550781 19.449219 19 20 19 C 20.550781 19 21 18.550781 21 18 C 21 17.449219 20.550781 17 20 17 Z M 24 17 C 23.449219 17 23 17.449219 23 18 C 23 18.550781 23.449219 19 24 19 C 24.550781 19 25 18.550781 25 18 C 25 17.449219 24.550781 17 24 17 Z M 28 17 C 27.449219 17 27 17.449219 27 18 C 27 18.550781 27.449219 19 28 19 C 28.550781 19 29 18.550781 29 18 C 29 17.449219 28.550781 17 28 17 Z M 32 17 C 31.449219 17 31 17.449219 31 18 C 31 18.550781 31.449219 19 32 19 C 32.550781 19 33 18.550781 33 18 C 33 17.449219 32.550781 17 32 17 Z M 36 17 C 35.449219 17 35 17.449219 35 18 C 35 18.550781 35.449219 19 36 19 C 36.550781 19 37 18.550781 37 18 C 37 17.449219 36.550781 17 36 17 Z M 40 17 C 39.476562 17 39.039062 17.40625 39 17.929688 C 39 17.953125 39 17.976562 39 18 C 39 18.523438 39.40625 18.960938 39.929688 19 C 39.953125 19 39.976562 19 40 19 C 40.550781 19 41 18.550781 41 18 C 41 17.449219 40.550781 17 40 17 Z M 44 17 C 43.449219 17 43 17.449219 43 18 C 43 18.550781 43.449219 19 44 19 C 44.550781 19 45 18.550781 45 18 C 45 17.449219 44.550781 17 44 17 Z M 48 17 C 47.449219 17 47 17.449219 47 18 C 47 18.550781 47.449219 19 48 19 C 48.550781 19 49 18.550781 49 18 C 49 17.449219 48.550781 17 48 17 Z M 52 17 C 51.449219 17 51 17.449219 51 18 C 51 18.550781 51.449219 19 52 19 C 52.550781 19 53 18.550781 53 18 C 53 17.449219 52.550781 17 52 17 Z M 56 17 C 55.449219 17 55 17.449219 55 18 C 55 18.550781 55.449219 19 56 19 C 56.550781 19 57 18.550781 57 18 C 57 17.449219 56.550781 17 56 17 Z M 60 17 C 59.449219 17 59 17.449219 59 18 C 59 18.550781 59.449219 19 60 19 C 60.550781 19 61 18.550781 61 18 C 61 17.449219 60.550781 17 60 17 Z M 26 21 C 25.449219 21 25 21.449219 25 22 C 25 22.550781 25.449219 23 26 23 C 26.550781 23 27 22.550781 27 22 C 27 21.449219 26.550781 21 26 21 Z M 40 21 C 39.449219 21 39 21.449219 39 22 C 39 22.550781 39.449219 23 40 23 C 40.550781 23 41 22.550781 41 22 C 41 21.449219 40.550781 21 40 21 Z M 54 21 C 53.449219 21 53 21.449219 53 22 C 53 22.550781 53.449219 23 54 23 C 54.550781 23 55 22.550781 55 22 C 55 21.449219 54.550781 21 54 21 Z M 25 25 C 24.449219 25 24 25.449219 24 26 C 24 26.550781 24.449219 27 25 27 C 25.550781 27 26 26.550781 26 26 C 26 25.449219 25.550781 25 25 25 Z M 40 25 C 39.449219 25 39 25.449219 39 26 C 39 26.550781 39.449219 27 40 27 C 40.550781 27 41 26.550781 41 26 C 41 25.449219 40.550781 25 40 25 Z M 55 25 C 54.449219 25 54 25.449219 54 26 C 54 26.550781 54.449219 27 55 27 C 55.550781 27 56 26.550781 56 26 C 56 25.449219 55.550781 25 55 25 Z M 9 30 L 71 30 C 71.566406 30 72 30.433594 72 31 L 72 49 C 72 49.566406 71.566406 50 71 50 L 9 50 C 8.433594 50 8 49.566406 8 49 L 8 31 C 8 30.433594 8.433594 30 9 30 Z M 15 35 L 18.003906 45 L 19.890625 45 L 22.15625 37.917969 L 22.269531 37.917969 L 24.550781 45 L 26.429688 45 L 29.433594 35 L 27.359375 35 L 25.445312 42.441406 L 25.335938 42.441406 L 23.101562 35 L 21.324219 35 L 19.121094 42.441406 L 19.003906 42.441406 L 17.089844 35 Z M 32.78125 35 L 35.785156 45 L 37.671875 45 L 39.9375 37.917969 L 40.054688 37.917969 L 42.335938 45 L 44.214844 45 L 47.21875 35 L 45.144531 35 L 43.230469 42.441406 L 43.121094 42.441406 L 40.886719 35 L 39.109375 35 L 36.90625 42.441406 L 36.785156 42.441406 L 34.871094 35 Z M 50.566406 35 L 53.570312 45 L 55.453125 45 L 57.722656 37.917969 L 57.839844 37.917969 L 60.121094 45 L 61.996094 45 L 65 35 L 62.925781 35 L 61.015625 42.441406 L 60.90625 42.441406 L 58.671875 35 L 56.890625 35 L 54.6875 42.441406 L 54.574219 42.441406 L 52.65625 35 Z M 31 43 C 30.449219 43 30 43.449219 30 44 C 30 44.550781 30.449219 45 31 45 C 31.550781 45 32 44.550781 32 44 C 32 43.449219 31.550781 43 31 43 Z M 49 43 C 48.449219 43 48 43.449219 48 44 C 48 44.550781 48.449219 45 49 45 C 49.550781 45 50 44.550781 50 44 C 50 43.449219 49.550781 43 49 43 Z M 11.464844 52 L 68.535156 52 C 63.84375 63.148438 52.867188 71 40 71 C 40.550781 71 41 70.550781 41 70 C 41 69.449219 40.550781 69 40 69 C 39.449219 69 39 69.449219 39 70 C 39 70.519531 39.402344 70.953125 39.921875 70.996094 C 27.089844 70.964844 16.148438 63.125 11.464844 52 Z M 25 53 C 24.449219 53 24 53.449219 24 54 C 24 54.550781 24.449219 55 25 55 C 25.550781 55 26 54.550781 26 54 C 26 53.449219 25.550781 53 25 53 Z M 40 53 C 39.449219 53 39 53.449219 39 54 C 39 54.550781 39.449219 55 40 55 C 40.550781 55 41 54.550781 41 54 C 41 53.449219 40.550781 53 40 53 Z M 55 53 C 54.449219 53 54 53.449219 54 54 C 54 54.550781 54.449219 55 55 55 C 55.550781 55 56 54.550781 56 54 C 56 53.449219 55.550781 53 55 53 Z M 26 57 C 25.449219 57 25 57.449219 25 58 C 25 58.550781 25.449219 59 26 59 C 26.550781 59 27 58.550781 27 58 C 27 57.449219 26.550781 57 26 57 Z M 40 57 C 39.449219 57 39 57.449219 39 58 C 39 58.550781 39.449219 59 40 59 C 40.550781 59 41 58.550781 41 58 C 41 57.449219 40.550781 57 40 57 Z M 54 57 C 53.449219 57 53 57.449219 53 58 C 53 58.550781 53.449219 59 54 59 C 54.550781 59 55 58.550781 55 58 C 55 57.449219 54.550781 57 54 57 Z M 20 61 C 19.449219 61 19 61.449219 19 62 C 19 62.550781 19.449219 63 20 63 C 20.550781 63 21 62.550781 21 62 C 21 61.449219 20.550781 61 20 61 Z M 24 61 C 23.449219 61 23 61.449219 23 62 C 23 62.550781 23.449219 63 24 63 C 24.550781 63 25 62.550781 25 62 C 25 61.449219 24.550781 61 24 61 Z M 28 61 C 27.449219 61 27 61.449219 27 62 C 27 62.550781 27.449219 63 28 63 C 28.550781 63 29 62.550781 29 62 C 29 61.449219 28.550781 61 28 61 Z M 32 61 C 31.449219 61 31 61.449219 31 62 C 31 62.550781 31.449219 63 32 63 C 32.550781 63 33 62.550781 33 62 C 33 61.449219 32.550781 61 32 61 Z M 36 61 C 35.449219 61 35 61.449219 35 62 C 35 62.550781 35.449219 63 36 63 C 36.550781 63 37 62.550781 37 62 C 37 61.449219 36.550781 61 36 61 Z M 40 61 C 39.476562 61 39.039062 61.40625 39 61.929688 C 39 61.953125 39 61.976562 39 62 C 39 62.523438 39.40625 62.960938 39.929688 63 C 39.953125 63 39.976562 63 40 63 C 40.550781 63 41 62.550781 41 62 C 41 61.449219 40.550781 61 40 61 Z M 44 61 C 43.449219 61 43 61.449219 43 62 C 43 62.550781 43.449219 63 44 63 C 44.550781 63 45 62.550781 45 62 C 45 61.449219 44.550781 61 44 61 Z M 48 61 C 47.449219 61 47 61.449219 47 62 C 47 62.550781 47.449219 63 48 63 C 48.550781 63 49 62.550781 49 62 C 49 61.449219 48.550781 61 48 61 Z M 52 61 C 51.449219 61 51 61.449219 51 62 C 51 62.550781 51.449219 63 52 63 C 52.550781 63 53 62.550781 53 62 C 53 61.449219 52.550781 61 52 61 Z M 56 61 C 55.449219 61 55 61.449219 55 62 C 55 62.550781 55.449219 63 56 63 C 56.550781 63 57 62.550781 57 62 C 57 61.449219 56.550781 61 56 61 Z M 60 61 C 59.449219 61 59 61.449219 59 62 C 59 62.550781 59.449219 63 60 63 C 60.550781 63 61 62.550781 61 62 C 61 61.449219 60.550781 61 60 61 Z M 30 65 C 29.449219 65 29 65.449219 29 66 C 29 66.550781 29.449219 67 30 67 C 30.550781 67 31 66.550781 31 66 C 31 65.449219 30.550781 65 30 65 Z M 40 65 C 39.449219 65 39 65.449219 39 66 C 39 66.550781 39.449219 67 40 67 C 40.550781 67 41 66.550781 41 66 C 41 65.449219 40.550781 65 40 65 Z M 50 65 C 49.449219 65 49 65.449219 49 66 C 49 66.550781 49.449219 67 50 67 C 50.550781 67 51 66.550781 51 66 C 51 65.449219 50.550781 65 50 65 Z M 33 68 C 32.449219 68 32 68.449219 32 69 C 32 69.550781 32.449219 70 33 70 C 33.550781 70 34 69.550781 34 69 C 34 68.449219 33.550781 68 33 68 Z M 47 68 C 46.449219 68 46 68.449219 46 69 C 46 69.550781 46.449219 70 47 70 C 47.550781 70 48 69.550781 48 69 C 48 68.449219 47.550781 68 47 68 Z M 47 68 "/>
</g>
</svg>
