<svg id="Layer_1" data-name="Layer 1" xmlns="http://www.w3.org/2000/svg" viewBox="0 0 159.01 159.01"><defs><style>.cls-1{fill:#3498db;}</style></defs><path class="cls-1" d="M79.51,10.19A69.31,69.31,0,0,0,19.56,44.84H33.37A58.18,58.18,0,0,1,56.76,26.42a77.86,77.86,0,0,0-7.5,18.42H61.43C66,30.64,73,21.75,79.51,21.75S93,30.64,97.58,44.84h12.17a77.86,77.86,0,0,0-7.49-18.42,58.21,58.21,0,0,1,23.4,18.42h13.8A69.34,69.34,0,0,0,79.51,10.19Zm-59.95,104a69.2,69.2,0,0,0,119.9,0h-13.8a58.19,58.19,0,0,1-23.4,18.41,77.77,77.77,0,0,0,7.49-18.41H97.58c-4.56,14.2-11.53,23.09-18.07,23.09S66,128.38,61.45,114.18H49.26a77.77,77.77,0,0,0,7.5,18.41,58.16,58.16,0,0,1-23.39-18.41Z"/><path class="cls-1" d="M11.29,49.93H22.6V97.49H11.29Z"/><path class="cls-1" d="M64.75,97.49H54v-4h-.14a10.86,10.86,0,0,1-9.5,5c-10.84,0-15.43-9.26-15.43-19,0-9,4.79-17.52,14.56-17.52a11.62,11.62,0,0,1,9.84,4.73h.14V49.93h11.3ZM40.21,79.84c0,4.73,1.8,10,6.92,10,5.52,0,6.71-5.26,6.71-9.66,0-5-1.79-9.59-6.71-9.59C42,70.58,40.21,75.44,40.21,79.84Z"/><path class="cls-1" d="M72,73.58a10.5,10.5,0,0,1,5.39-9.26c3.12-1.8,7-2.4,11-2.4,8.18,0,16.09,1.8,16.09,11.59V88.63c0,2.93,0,6.13,1.33,8.86H94.4a13.31,13.31,0,0,1-.67-3.26c-2.92,3.13-7.18,4.26-11.37,4.26C75.72,98.49,70.6,95.16,70.6,88c0-11.19,12.23-10.39,20.07-12,1.93-.46,3-1.06,3-3.19,0-2.6-3.13-3.6-5.45-3.6-3.26,0-5.12,1.46-5.66,4.33ZM86.62,91.5c5.38,0,7.18-3,6.91-10.19-1.59,1-4.52,1.13-7,1.86s-4.65,1.67-4.65,4.4S84,91.5,86.62,91.5Z"/><path class="cls-1" d="M111.88,62.92h10.77v4h.14a10.87,10.87,0,0,1,9.5-5c10.84,0,15.43,9.26,15.43,19,0,9-4.79,17.52-14.56,17.52a11.62,11.62,0,0,1-9.84-4.73h-.13v15.32H111.88Zm10.91,16.92c0,6.06,1.72,10,6.84,10s6.79-5.26,6.79-10c0-4.4-1.67-9.26-6.72-9.26C126.71,70.58,122.79,72.65,122.79,79.84Z"/></svg>