<svg xmlns="http://www.w3.org/2000/svg" xmlns:xlink="http://www.w3.org/1999/xlink" viewBox="0 0 85 85" fill="#fff" fill-rule="evenodd" stroke="#000" stroke-linecap="round" stroke-linejoin="round"><use xlink:href="#A" x="2.5" y="2.5"/><symbol id="A" overflow="visible"><path d="M40 3.62l39.985 5.752v3.387c0 5.036-17.9 9.095-40 9.095S0 17.796 0 12.76V9.08zm0 24.44c16.703 0 31.007-2.32 36.997-5.62l1.962-3.212.8-2.92v3.62L66.677 73.942C66.677 77.3 54.742 80 40.015 80S13.37 77.3 13.37 73.942L.287 19.928V16.38l3.018 6.175C9.3 25.796 23.478 28.06 40 28.06z" fill="#8c3123" stroke="none"/><path d="M40 0c22.1 0 40 4.073 40 9.08s-17.925 9.05-40 9.05S.015 14.117.015 9.08 17.9 0 40 0zm0 24.438c20.596 0 37.54-3.518 39.744-8.073L66.662 70.38c0 3.358-11.935 6.06-26.662 6.06s-26.66-2.688-26.66-6.046L.257 16.38C2.475 20.92 19.42 24.438 40 24.438z" stroke="none" fill="#e05243"/><path d="M30.585 29.6h17.322v16.642H30.585zM16.8 60.32c0-4.545 3.8-8.204 8.54-8.204s8.54 3.66 8.54 8.204-3.8 8.204-8.54 8.204-8.54-3.66-8.54-8.204zm44.45 7.826h-17.1l8.555-15.3 8.555 15.3z" stroke="none"/></symbol></svg>