<svg xmlns="http://www.w3.org/2000/svg" width="90" height="74" stroke="none" stroke-linecap="round" stroke-linejoin="round" fill="#326ce5" fill-rule="nonzero">
  <path d="M85.4 8.0195c-1.5-.2-3.1.7-3.7001 2.1s-.1 3.2 1.1001 4.2l7.2-1-4.6-5.3zm-5 1.9c.9-2.7001 4.1-3 4.1-3-14.7-19.1-29.2 7.4-29.2 7.4-15.5 7.1-38.2 39.3-38.2 39.3C.2 62.7194 0 72.9195 0 72.9195h.3c2.7-1 6.5-3.2001 9.9-7.9 0 0-2.1 4.5-5.7 8.1999 1 0 2-.0999 2.8-.2999 2.5-.8 10.3-13.8 14.1-16.3s8.2-4.4001 10.1-6.3c2-1.9 15.1-15.1001 15.1-15.1001-3.1 6-19.3 20.4001-14.1 20.1001s30.1-18 30.1-18c-2.4 5.6-19.3 14.8999-19.3 14.8999 2.7.2001 5.9-.2999 8.4-.6999 2.8 2.8 4.5 3.5 5 4 .6.6-3.6 1.1-4.5 1.6s-3.1.2-3.1 2.2c0 0 2.2-.9 4.4 0 0 0 3-.2 4.1-1.7l1.9-.8s.4.3999 1.5.3999l5.5 5.6001c.6.6-3.6 1.1-4.5 1.6s-3.1.2-3.1 2.2c0 0 2.2-.9001 4.4 0 0 0 3-.2 4.1-1.7l1.9-.8s.8.8 3.3.2 4.7-.9 4.7-.9 0-1.9 2.5-.5c0 0-1.9-1.4-3.1-1.3-1.3.2-1.9.5-1.9.5l-5.3-.5-5-5c1.8-.4001 3.1-.6 3.1-.6s0-1.9 2.5-.5c0 0-1.9-1.4-3.1-1.3001-1.3.2001-1.9.5-1.9.5l-2.7-.1999-4.5-4.5c18.8-7.4 21.9-19.2 21.7-24.8001-.2-5.7999 2.1-9.5999 2.1-9.5999s-2.2-3.1-1.3-5.7zm-5.9-.2001c-1 0-1.7-.7999-1.7-1.6999 0-1 .8-1.7 1.7-1.7 1 0 1.7.8 1.7 1.7 0 1-.8 1.6999-1.7 1.6999z" />
</svg>
