<?xml version="1.0" encoding="UTF-8"?>
<svg xmlns="http://www.w3.org/2000/svg" xmlns:xlink="http://www.w3.org/1999/xlink" width="48pt" height="48pt" viewBox="0 0 48 48" version="1.1">
<g id="surface7243241">
<path style=" stroke:none;fill-rule:nonzero;fill:rgb(20.392157%,59.607843%,85.882353%);fill-opacity:1;" d="M 24 4 C 16.617188 4 10.171875 8.03125 6.707031 14 L 11.589844 14 C 13.390625 11.777344 15.738281 10.015625 18.472656 9.003906 C 17.847656 10.460938 17.34375 12.160156 16.960938 14 L 21.074219 14 C 22.03125 10.046875 23.375 8 24 8 C 24.625 8 25.96875 10.046875 26.925781 14 L 31.039062 14 C 30.65625 12.160156 30.152344 10.460938 29.527344 9.003906 C 32.257812 10.015625 34.609375 11.777344 36.410156 14 L 41.292969 14 C 37.828125 8.03125 31.382812 4 24 4 Z M 2 18 L 4.484375 30 L 7.101562 30 L 8.800781 23.058594 L 10.496094 30 L 13.101562 30 L 15.585938 18 L 12.578125 18 L 11.503906 24.730469 L 9.90625 18 L 7.679688 18 L 6.078125 24.742188 L 5.015625 18 Z M 17.207031 18 L 19.691406 30 L 22.308594 30 L 24.007812 23.058594 L 25.703125 30 L 28.308594 30 L 30.792969 18 L 27.789062 18 L 26.710938 24.730469 L 25.117188 18 L 22.886719 18 L 21.289062 24.742188 L 20.222656 18 Z M 32.414062 18 L 34.898438 30 L 37.515625 30 L 39.214844 23.058594 L 40.910156 30 L 43.515625 30 L 46 18 L 42.992188 18 L 41.917969 24.730469 L 40.320312 18 L 38.09375 18 L 36.492188 24.742188 L 35.429688 18 Z M 6.707031 34 C 10.171875 39.96875 16.617188 44 24 44 C 31.382812 44 37.828125 39.96875 41.292969 34 L 36.410156 34 C 34.609375 36.222656 32.261719 37.984375 29.527344 38.996094 C 30.152344 37.539062 30.652344 35.839844 31.035156 34 L 26.921875 34 C 25.964844 37.953125 24.621094 40 23.996094 40 C 23.371094 40 22.03125 37.953125 21.074219 34 L 16.960938 34 C 17.34375 35.839844 17.847656 37.539062 18.472656 38.996094 C 15.742188 37.984375 13.390625 36.222656 11.589844 34 Z M 6.707031 34 "/>
</g>
</svg>
